<?xml version="1.0" encoding="utf-8"?>
<!-- Generator: Adobe Illustrator 16.0.0, SVG Export Plug-In . SVG Version: 6.00 Build 0)  -->
<!DOCTYPE svg PUBLIC "-//W3C//DTD SVG 1.1//EN" "http://www.w3.org/Graphics/SVG/1.1/DTD/svg11.dtd">
<svg version="1.1" id="Layer_1" xmlns="http://www.w3.org/2000/svg" xmlns:xlink="http://www.w3.org/1999/xlink" x="0px" y="0px"
	 width="156.921px" height="190.903px" viewBox="0 0 156.921 190.903" enable-background="new 0 0 156.921 190.903"
	 xml:space="preserve">
<g>
	<path fill="#FFFFFF" d="M119.029,60.983L97.698,39.68c-0.531-0.532-1.323-0.874-2.075-0.874H24.757
		c-0.752,0-1.473,0.341-2.005,0.874L1.161,60.962C0.63,61.494,0,62.235,0,62.987v92.127c0,1.564,1.932,2.692,3.497,2.692h113.386
		c1.566,0,3.117-1.128,3.117-2.692V62.987C120,62.235,119.561,61.515,119.029,60.983z M114,151.807H61v-19.611
		c1,0.049,0.926,0.082,1.339,0.082c5.024,0,9.421-3.583,10.39-8.521l0.229-1.043l-1.031-0.205c-0.676-0.133-1.456-0.2-2.139-0.2
		c-3.562,0-6.788,1.808-8.788,4.616v-13.229c1,0.05,0.925,0.082,1.338,0.082c5.024,0,9.422-3.584,10.391-8.523l0.229-1.043
		l-1.031-0.205c-0.676-0.132-1.454-0.199-2.136-0.199c-3.563,0-6.791,1.809-8.791,4.618V84.27c3,4.306,7.528,6.537,12.992,6.537H75
		v-0.104c0-6.823-4.748-12.229-11.073-13.818C70.252,75.231,75,69.632,75,62.808v-2.001h-1.008c-6.287,0-11.66,4.158-13.799,9.797
		c-2.142-5.639-7.519-9.797-13.806-9.797H45v2.001c0,6.824,4.742,12.424,11.066,14.076C49.742,78.473,45,83.879,45,90.702v0.104
		h1.388c5.464,0,10.612-2.232,12.612-6.54v16.248c-1-3.723-5.302-6.246-9.511-6.246c-0.684,0-1.325,0.068-2,0.201l-1.019,0.205
		l0.217,1.042c0.97,4.938,5.327,8.523,10.35,8.523c0.682,0,1.277-0.067,1.951-0.2l0.012-0.02v14.994
		c-1-3.723-5.302-6.246-9.512-6.246c-0.683,0-1.324,0.068-2,0.201l-1.019,0.204l0.217,1.043c0.97,4.938,5.327,8.522,10.35,8.523
		c0.682,0,1.277-0.067,1.951-0.2L59,122.52v29.287H6V64.161l19.932-20.354h68.518L114,64.161V151.807z M61.931,130.136
		c1.204-3.518,4.657-5.929,8.466-5.686C69.193,127.969,65.726,130.381,61.931,130.136z M61.931,111.638
		c1.204-3.519,4.655-5.918,8.466-5.689C69.193,109.468,65.726,111.864,61.931,111.638z M61.373,78.085
		c6.101,0.531,10.976,5.406,11.508,11.506C66.78,89.06,61.905,84.185,61.373,78.085z M61.373,75.427
		c0.532-6.1,5.407-10.975,11.508-11.508C72.349,70.021,67.474,74.895,61.373,75.427z M59.006,75.427
		c-6.1-0.532-10.975-5.406-11.507-11.508C53.6,64.452,58.474,69.327,59.006,75.427z M59.006,78.085
		c-0.532,6.1-5.406,10.975-11.507,11.506C48.031,83.491,52.906,78.616,59.006,78.085z M57.545,102.099
		c-0.167,0.011-0.334,0.016-0.502,0.016c-3.626,0-6.813-2.34-7.963-5.704C52.88,96.179,56.343,98.579,57.545,102.099z
		 M57.545,120.599c-0.167,0.01-0.334,0.015-0.502,0.015c-3.626,0-6.813-2.339-7.963-5.703
		C52.875,114.685,56.342,117.079,57.545,120.599z"/>
	<g>
		<path fill="#FFFFFF" stroke="#FFFFFF" stroke-miterlimit="10" d="M16.023,178.214c-1.152-3.002-4.032-4.801-7.129-4.801
			c-2.184,0-4.128,0.936-5.568,2.424c-1.393,1.488-2.28,3.504-2.28,5.76c0,2.258,0.888,4.297,2.28,5.762
			c1.44,1.512,3.385,2.424,5.568,2.424c3.36,0,6.937-2.664,7.561-6.217H9.039v-0.385h7.896c-0.048,0.576-0.192,1.129-0.408,1.682
			c-1.104,3.072-4.633,5.328-7.633,5.328c-2.28,0-4.344-0.984-5.832-2.545c-1.465-1.535-2.4-3.672-2.4-6.049
			c0-2.352,0.936-4.488,2.4-6.047c1.488-1.561,3.552-2.521,5.832-2.521c3.313,0,6.433,1.992,7.537,5.186H16.023z"/>
		<path fill="#FFFFFF" stroke="#FFFFFF" stroke-miterlimit="10" d="M20.102,189.974h-0.36v-16.609v-0.191h0.192h5.616
			c6.721,0,6.721,9.816,0,9.816h-2.712l7.729,6.984h-0.552l-7.729-6.984v-0.359h3.264c6.241,0,6.241-9.072,0-9.072h-5.448V189.974z"
			/>
		<path fill="#FFFFFF" stroke="#FFFFFF" stroke-miterlimit="10" d="M34.214,189.614h8.929v0.359h-9.265h-0.049v-16.777h9.266v0.361
			h-8.881v7.824h8.688v0.383h-8.688V189.614z"/>
		<path fill="#FFFFFF" stroke="#FFFFFF" stroke-miterlimit="10" d="M46.478,189.614h8.929v0.359h-9.265h-0.048v-16.777h9.265v0.361
			h-8.881v7.824h8.688v0.383h-8.688V189.614z"/>
		<path fill="#FFFFFF" stroke="#FFFFFF" stroke-miterlimit="10" d="M58.357,189.974v-16.824l0.336,0.023l11.161,16.129v-16.129h0.36
			v16.801h-0.384l-11.09-16.033v16.033H58.357z"/>
		<path fill="#FFFFFF" stroke="#FFFFFF" stroke-miterlimit="10" d="M83.99,175.573c0.384,1.008,0.384,2.207,0,3.24
			c-0.36,0.912-1.009,1.68-1.969,2.088c4.921,0.863,4.633,9.072-0.888,9.072c-1.824,0-5.664,0-7.465,0v-16.777
			c1.608,0,5.209,0,6.793,0C82.286,173.196,83.462,174.229,83.99,175.573z M74.053,180.806h6.409c1.656,0,2.712-0.936,3.192-2.137
			c0.359-0.936,0.359-2.016,0-2.951c-0.48-1.201-1.536-2.137-3.192-2.137h-6.409V180.806z M74.053,189.614h7.081
			c5.353,0,5.353-8.426,0-8.426h-7.081V189.614z"/>
		<path fill="#FFFFFF" stroke="#FFFFFF" stroke-miterlimit="10" d="M90.253,175.478c1.536-1.584,3.696-2.545,6.049-2.545
			c2.376,0,4.512,0.961,6.072,2.545c1.536,1.559,2.521,3.719,2.521,6.096s-0.984,4.537-2.521,6.096
			c-1.561,1.586-3.696,2.545-6.072,2.545c-2.353,0-4.513-0.959-6.049-2.545c-1.536-1.559-2.521-3.719-2.521-6.096
			S88.717,177.036,90.253,175.478z M102.109,175.765c-1.487-1.512-3.552-2.447-5.808-2.447c-2.257,0-4.297,0.936-5.785,2.447
			c-1.464,1.488-2.4,3.529-2.4,5.809c0,2.281,0.937,4.32,2.4,5.809c1.488,1.512,3.528,2.449,5.785,2.449
			c2.256,0,4.32-0.938,5.808-2.449c1.465-1.488,2.377-3.527,2.377-5.809C104.486,179.294,103.574,177.253,102.109,175.765z"/>
		<path fill="#FFFFFF" stroke="#FFFFFF" stroke-miterlimit="10" d="M106.573,173.196l5.832,8.064l5.856-8.064h0.433l-6.073,8.4
			l6.073,8.377h-0.433l-5.856-8.064l-5.832,8.064h-0.456l6.072-8.377l-6.072-8.4H106.573z"/>
	</g>
	<path fill="#FFFFFF" d="M132.36,46.807h-1c0-12-9.36-20.579-21.36-20.579v-1C122,25.228,132.36,34.807,132.36,46.807z"/>
	<path fill="#FFFFFF" d="M144.633,46.807h-1.545c0-18-15.088-32.307-33.088-32.307v-1.546C129,12.954,144.633,27.807,144.633,46.807
		z"/>
	<path fill="#FFFFFF" d="M156.921,46.807H154.8c0-25-20.8-44.686-45.8-44.686V0C136,0,156.921,20.807,156.921,46.807z"/>
</g>
</svg>
