<?xml version="1.0" encoding="utf-8"?>
<!-- Generator: Adobe Illustrator 16.0.0, SVG Export Plug-In . SVG Version: 6.00 Build 0)  -->
<!DOCTYPE svg PUBLIC "-//W3C//DTD SVG 1.1//EN" "http://www.w3.org/Graphics/SVG/1.1/DTD/svg11.dtd">
<svg version="1.1" id="Layer_1" xmlns="http://www.w3.org/2000/svg" xmlns:xlink="http://www.w3.org/1999/xlink" x="0px" y="0px"
	 width="61.502px" height="38.439px" viewBox="0 0 61.502 38.439" enable-background="new 0 0 61.502 38.439" xml:space="preserve">
<g>
	<path fill="#F9F9F9" d="M33.869,14.412l0.508-2.039l-1.241-0.309l-0.495,1.984c-0.327-0.08-0.661-0.158-0.995-0.232l0.499-2
		l-1.24-0.309l-0.511,2.038c-0.27-0.062-0.534-0.122-0.791-0.187l0.001-0.006l-1.712-0.428l-0.33,1.326c0,0,0.921,0.211,0.902,0.225
		c0.502,0.125,0.594,0.457,0.578,0.722l-0.58,2.323c0.035,0.008,0.08,0.021,0.129,0.041c-0.041-0.011-0.085-0.021-0.13-0.033
		l-0.813,3.255c-0.062,0.152-0.218,0.382-0.569,0.295c0.013,0.018-0.902-0.226-0.902-0.226l-0.616,1.42l1.616,0.403
		c0.301,0.075,0.595,0.154,0.884,0.229l-0.513,2.063l1.239,0.31l0.509-2.041c0.34,0.092,0.668,0.177,0.989,0.258l-0.507,2.03
		l1.241,0.309l0.515-2.058c2.116,0.4,3.707,0.238,4.378-1.676c0.54-1.541-0.026-2.431-1.14-3.01
		c0.811-0.188,1.422-0.721,1.585-1.822C36.583,15.762,35.437,14.952,33.869,14.412z M33.521,21.244
		c-0.385,1.541-2.979,0.708-3.82,0.499l0.682-2.732C31.224,19.221,33.921,19.636,33.521,21.244z M33.905,17.244
		c-0.35,1.402-2.511,0.689-3.212,0.516l0.618-2.479C32.013,15.456,34.27,15.782,33.905,17.244z"/>
	<path fill="#F9F9F9" d="M60.072-0.342H2.669c-1.132,0-2.051,0.918-2.051,2.051v34.339c0,1.132,0.919,2.05,2.051,2.05h57.403
		c1.132,0,2.05-0.918,2.05-2.05V1.709C62.122,0.576,61.204-0.342,60.072-0.342z M42.345,21.615
		c-1.512,6.061-7.65,9.748-13.713,8.237c-6.059-1.511-9.747-7.649-8.234-13.71c1.51-6.061,7.648-9.749,13.708-8.238
		C40.167,9.416,43.856,15.555,42.345,21.615z"/>
</g>
</svg>
