<?xml version="1.0" encoding="utf-8"?>
<!-- Generator: Adobe Illustrator 16.0.0, SVG Export Plug-In . SVG Version: 6.00 Build 0)  -->
<!DOCTYPE svg PUBLIC "-//W3C//DTD SVG 1.1//EN" "http://www.w3.org/Graphics/SVG/1.1/DTD/svg11.dtd">
<svg version="1.1" id="Layer_1" xmlns="http://www.w3.org/2000/svg" xmlns:xlink="http://www.w3.org/1999/xlink" x="0px" y="0px"
	 width="61.502px" height="38.439px" viewBox="0 0 61.502 38.439" enable-background="new 0 0 61.502 38.439" xml:space="preserve">
<g>
	<path fill="#F9F9F9" d="M36.247,20.56c-0.531,0-0.706,0.286-0.759,0.554h1.465C36.953,21.113,36.953,20.56,36.247,20.56z"/>
	<path fill="#F9F9F9" d="M40.889,20.675c-0.549,0-0.715,0.413-0.764,0.615v0.25c0.048,0.206,0.215,0.566,0.801,0.566
		c0.554-0.019,0.804-0.497,0.804-0.726C41.729,21.15,41.595,20.675,40.889,20.675z"/>
	<path fill="#F9F9F9" d="M31.243,15.86h-0.534v2.12h0.61c0,0,1.261-0.096,1.261-1.049C32.58,15.938,31.243,15.86,31.243,15.86z"/>
	<path fill="#F9F9F9" d="M37.24,15.918h-0.553v0.918h0.496c0,0,0.688-0.039,0.726-0.459C37.929,15.976,37.24,15.918,37.24,15.918z"
		/>
	<path fill="#F9F9F9" d="M31.243,19.833h-0.534v2.12h0.61c0,0,1.261-0.076,1.261-1.051C32.58,19.929,31.243,19.833,31.243,19.833z"
		/>
	<path fill="#F9F9F9" d="M59.563-0.341H2.16c-1.132,0-2.051,0.917-2.051,2.05v34.339c0,1.132,0.919,2.05,2.051,2.05h57.403
		c1.132,0,2.049-0.918,2.049-2.05V1.709C61.612,0.576,60.695-0.341,59.563-0.341z M39.589,15.402h2.599v0.61h-1.662v0.727h1.529
		v0.592h-1.529v0.688h1.68v0.573h-2.616V15.402z M20.776,24.838c-4.603,0-8.327-2.674-8.327-5.96c0-3.285,3.725-5.959,8.327-5.959
		c0.141,0,0.282,0.003,0.421,0.008v4.274c-2.229-0.161-7.276,0.883-7.276,3.167c0,1.489,2.672,3.667,7.027,3.725
		c0.173,0,5.119-0.19,5.043-5.501c-0.063-4.459-3.401-5.24-4.47-5.377v-0.271c4.255,0.27,7.603,2.83,7.603,5.935
		C29.124,22.164,25.379,24.838,20.776,24.838z M21.197,17.32v6.391c0,0-3.706-0.669-3.706-3.209
		C17.491,18.476,20.234,17.583,21.197,17.32z M31.721,22.545h-1.948v-3.15h1.91c0,0,1.891-0.039,1.871,1.681
		C33.535,22.354,31.721,22.545,31.721,22.545z M31.721,18.572h-1.948v-3.15h1.91c0,0,1.891-0.039,1.871,1.681
		C33.535,18.382,31.721,18.572,31.721,18.572z M34.052,15.402h0.916v3.189h-0.916V15.402z M36.324,22.144
		c0.802,0.021,1.26-0.286,1.26-0.286v0.592c0,0-0.879,0.211-1.298,0.211c-0.44,0-1.739-0.096-1.739-1.299
		c0-0.974,1.071-1.279,1.681-1.279c1.07,0.038,1.586,0.42,1.567,1.509c0,0.015-1.76,0.004-2.309,0
		C35.54,21.841,35.72,22.115,36.324,22.144z M38.081,18.592c0,0-0.152-0.19-0.229-0.324c-0.057-0.134-0.23-0.42-0.23-0.42
		s-0.133-0.479-0.591-0.479c-0.012,0-0.198-0.006-0.343-0.012v1.234h-0.919v-3.189h1.51c0,0,1.566-0.076,1.566,0.84
		c0,0.782-0.897,0.842-0.897,0.842s0.248,0.037,0.362,0.209c0.096,0.153,0.727,1.299,0.727,1.299H38.081z M41.156,22.641
		c-0.52,0-0.838-0.176-1.031-0.397v0.321h-0.937v-3.438h0.937v1.388c0.211-0.229,0.566-0.413,1.164-0.413
		c1.185,0,1.376,0.992,1.356,1.26S42.531,22.641,41.156,22.641z M45.187,22.564h-0.936v-2.426h0.936V22.564z M45.187,19.775h-0.936
		v-0.648h0.936V19.775z M44.651,18.019c0.648,0,1.031-0.114,1.031-0.114l0.095,0.611c0,0-0.285,0.133-1.146,0.133
		c-0.859,0-2.254-0.42-2.254-1.642c0-1.241,1.318-1.7,2.14-1.7c0.84,0,1.317,0.209,1.317,0.209l-0.113,0.555
		c0,0-0.44-0.172-1.014-0.172c-0.743,0-1.318,0.555-1.336,1.051C43.372,17.504,44.021,18,44.651,18.019z M48.299,22.641
		c-0.286,0-1.031-0.172-1.031-0.897c0-0.296,0-0.716,0-1.108h-0.782v-0.496h0.782c0-0.342,0-0.592,0-0.592h0.955v0.592h0.782v0.496
		h-0.782v0.956c0,0,0,0.478,0.382,0.478s0.4-0.059,0.4-0.059l0.02,0.535C49.024,22.545,48.586,22.641,48.299,22.641z M49.272,15.938
		h-1.126v2.654H47.21v-2.654h-1.107v-0.555h3.17V15.938z"/>
</g>
</svg>
