<?xml version="1.0" encoding="utf-8"?>
<!-- Generator: Adobe Illustrator 16.0.0, SVG Export Plug-In . SVG Version: 6.00 Build 0)  -->
<!DOCTYPE svg PUBLIC "-//W3C//DTD SVG 1.1//EN" "http://www.w3.org/Graphics/SVG/1.1/DTD/svg11.dtd">
<svg version="1.1" id="Layer_1" xmlns="http://www.w3.org/2000/svg" xmlns:xlink="http://www.w3.org/1999/xlink" x="0px" y="0px"
	 width="61.502px" height="38.439px" viewBox="0 0 61.502 38.439" enable-background="new 0 0 61.502 38.439" xml:space="preserve">
<g>
	<path fill="#F9F9F9" d="M34.721,16.542l-0.337,0.002c-0.218-0.002-0.441,0.177-0.486,0.388l-0.309,1.33
		c-0.051,0.213,0.091,0.392,0.312,0.389h0.254c0.555,0,0.985-0.111,1.293-0.334c0.307-0.229,0.46-0.55,0.46-0.965
		c-0.001-0.274-0.099-0.479-0.297-0.611C35.407,16.609,35.113,16.544,34.721,16.542z"/>
	<path fill="#F9F9F9" d="M22.488,19.783c-0.06,0-0.521,0.053-0.755,0.082c-0.261,0.038-0.49,0.089-0.675,0.152
		c-0.187,0.073-0.335,0.172-0.436,0.295c-0.102,0.127-0.15,0.29-0.15,0.5c-0.001,0.182,0.068,0.309,0.2,0.382
		c0.133,0.076,0.328,0.112,0.582,0.112c0.166,0,0.347-0.04,0.534-0.116c0.141-0.058,0.275-0.126,0.402-0.206
		c0.045-0.029,0.145-0.139,0.162-0.213c0.062-0.249,0.194-0.796,0.206-0.865C22.585,19.75,22.547,19.783,22.488,19.783z"/>
	<path fill="#F9F9F9" d="M16.135,16.519l-0.336,0.002c-0.221-0.002-0.442,0.177-0.488,0.39l-0.307,1.328
		c-0.051,0.215,0.089,0.392,0.311,0.392h0.251c0.555,0,0.982-0.114,1.292-0.339c0.31-0.228,0.467-0.548,0.461-0.963
		c0.004-0.275-0.097-0.48-0.293-0.609C16.822,16.586,16.526,16.519,16.135,16.519z"/>
	<path fill="#F9F9F9" d="M41.08,19.787c-0.059,0.001-0.521,0.055-0.755,0.084c-0.263,0.037-0.488,0.088-0.674,0.15
		c-0.186,0.074-0.337,0.173-0.438,0.296c-0.099,0.128-0.148,0.29-0.148,0.5c-0.002,0.181,0.067,0.309,0.199,0.382
		c0.133,0.076,0.327,0.113,0.583,0.113c0.165,0,0.345-0.041,0.534-0.116c0.141-0.06,0.274-0.128,0.401-0.208
		c0.045-0.029,0.145-0.138,0.162-0.213c0.062-0.248,0.195-0.795,0.206-0.863C41.179,19.755,41.139,19.787,41.08,19.787z"/>
	<path fill="#F9F9F9" d="M59.452,0H2.05C0.917,0,0,0.918,0,2.051V36.39c0,1.132,0.917,2.05,2.05,2.05h57.402
		c1.132,0,2.05-0.918,2.05-2.05V2.051C61.502,0.918,60.584,0,59.452,0z M18.22,19.195c-0.698,0.512-1.669,0.768-2.922,0.77h-0.292
		c-0.223,0-0.441,0.176-0.488,0.389l-0.354,1.521c-0.049,0.217-0.269,0.391-0.488,0.391H12.65c-0.223,0-0.36-0.178-0.311-0.391
		l1.44-6.267c0.053-0.213,0.271-0.386,0.491-0.39l2.138-0.002c0.462,0.006,0.864,0.035,1.208,0.096
		c0.343,0.066,0.637,0.172,0.89,0.329c0.244,0.151,0.435,0.353,0.562,0.602c0.133,0.246,0.197,0.555,0.195,0.923
		C19.266,18.006,18.916,18.684,18.22,19.195z M24.567,18.396c-0.007,0.102-0.021,0.188-0.039,0.264l-0.747,3.228
		c-0.046,0.196-0.238,0.358-0.438,0.384c-0.003,0.002-0.004,0.006-0.015,0.006h-0.146c-0.209,0-0.656,0.002-0.787,0.002
		l-0.001-0.002h-0.017l-0.003-0.004c-0.197-0.02-0.315-0.184-0.272-0.383l-0.001-0.003c0-0.002,0.001-0.003,0.001-0.005l0.037-0.164
		l-0.004-0.008c-0.132,0.086-0.236,0.158-0.387,0.257c-0.149,0.1-0.29,0.179-0.421,0.233c-0.175,0.076-0.341,0.131-0.493,0.169
		c-0.154,0.038-0.367,0.058-0.643,0.06c-0.438,0-0.801-0.121-1.08-0.369c-0.274-0.252-0.418-0.574-0.418-0.971
		c0-0.419,0.099-0.774,0.294-1.068c0.201-0.293,0.491-0.523,0.881-0.696c0.364-0.167,0.801-0.287,1.3-0.356
		c0.506-0.074,0.926-0.127,1.51-0.163c0.098-0.013,0.131-0.052,0.148-0.093c0.019-0.041,0.018-0.092,0.016-0.145
		c0-0.219-0.102-0.373-0.309-0.465c-0.208-0.086-0.519-0.131-0.93-0.131c-0.278-0.002-0.629,0.054-0.961,0.13
		c-0.346,0.079-0.438,0.13-0.607,0.181c-0.083,0.025-0.271,0.039-0.201-0.29l0.126-0.514c0,0,0.06-0.39,0.449-0.476
		c0.189-0.041,0.22-0.049,0.524-0.095c0.416-0.065,0.829-0.097,1.241-0.097c0.831,0,1.438,0.109,1.828,0.326
		c0.388,0.217,0.585,0.555,0.582,1.012C24.589,18.21,24.577,18.294,24.567,18.396z M26.211,24.76l-1.06,0.001
		c-0.22,0-0.293-0.177-0.159-0.39l0.906-1.582c0,0,0.074-0.091,0.007-0.606c-0.136-0.933-0.835-4.896-0.835-4.896
		c-0.051-0.214,0.088-0.391,0.309-0.391l0.914-0.001c0.284-0.001,0.509,0.185,0.561,0.401c0,0,0.443,2.688,0.453,2.749
		c0.014,0.05,0.093,0.136,0.171,0c0.145-0.251,1.612-2.767,1.612-2.767c0.136-0.213,0.423-0.392,0.643-0.392
		c0,0,0.983,0.004,1.228,0c0.361-0.005-0.029,0.585-0.029,0.585l-4.077,6.898C26.722,24.586,26.431,24.76,26.211,24.76z
		 M36.809,19.219c-0.696,0.514-1.669,0.771-2.923,0.771h-0.293c-0.221-0.004-0.442,0.175-0.491,0.389l-0.347,1.52
		c-0.052,0.213-0.274,0.39-0.491,0.389l-1.028,0.001c-0.218,0.001-0.359-0.177-0.308-0.39l1.439-6.266
		c0.053-0.214,0.268-0.388,0.489-0.392l2.142-0.001c0.461,0.001,0.865,0.035,1.204,0.096c0.344,0.063,0.641,0.171,0.89,0.326
		c0.245,0.156,0.437,0.355,0.564,0.604c0.131,0.246,0.193,0.555,0.194,0.922C37.851,18.028,37.502,18.704,36.809,19.219z
		 M43.159,18.4c-0.008,0.102-0.021,0.189-0.038,0.266l-0.747,3.227c-0.045,0.195-0.238,0.359-0.439,0.385
		c-0.004,0.002-0.005,0.005-0.014,0.005h-0.146c-0.21,0.001-0.658,0.001-0.789,0.001l-0.001-0.001h-0.017l-0.002-0.003
		c-0.197-0.021-0.318-0.186-0.273-0.384l-0.002-0.003c0-0.001,0.002-0.002,0.002-0.004l0.039-0.166l-0.006-0.007
		c-0.133,0.087-0.236,0.157-0.386,0.257c-0.148,0.1-0.291,0.179-0.421,0.234c-0.176,0.075-0.342,0.13-0.494,0.168
		c-0.153,0.039-0.368,0.059-0.643,0.061c-0.438,0-0.801-0.123-1.079-0.37c-0.276-0.251-0.419-0.574-0.419-0.97
		c0.002-0.42,0.1-0.775,0.295-1.07c0.2-0.292,0.491-0.523,0.88-0.695c0.366-0.167,0.802-0.287,1.3-0.357
		c0.507-0.074,0.926-0.127,1.51-0.161c0.099-0.014,0.132-0.053,0.148-0.093c0.02-0.043,0.018-0.093,0.017-0.145
		c0-0.221-0.103-0.375-0.31-0.465c-0.207-0.086-0.52-0.131-0.929-0.131c-0.279-0.003-0.628,0.054-0.961,0.128
		c-0.347,0.079-0.438,0.13-0.609,0.182c-0.083,0.024-0.27,0.039-0.199-0.29l0.124-0.514c0,0,0.062-0.39,0.45-0.476
		c0.189-0.04,0.22-0.049,0.524-0.095c0.416-0.064,0.829-0.098,1.24-0.098c0.833,0,1.44,0.11,1.83,0.326
		c0.387,0.219,0.583,0.556,0.583,1.012C43.181,18.215,43.17,18.299,43.159,18.4z M45.065,21.875
		c-0.004,0.017-0.015,0.031-0.021,0.047c-0.069,0.191-0.27,0.344-0.471,0.344h-0.918h-0.033l-0.006-0.009
		c-0.193-0.021-0.313-0.181-0.271-0.378l-0.002-0.004c0.004-0.014,0.013-0.053,0.026-0.111l1.313-5.947
		c0.02-0.088,0.033-0.15,0.033-0.15c0.002-0.01,0.009-0.018,0.012-0.027c0.062-0.203,0.27-0.363,0.479-0.363h0.001c0,0,0,0,0.001,0
		h0.916c0.219,0,0.355,0.176,0.31,0.389h0.003L45.065,21.875z M47.516,15.711H47.17v0.453c0,0.053,0.002,0.094,0.003,0.123
		c0.002,0.029,0.01,0.057,0.025,0.082c0.013,0.024,0.03,0.041,0.054,0.053c0.023,0.011,0.059,0.016,0.104,0.016
		c0.027,0,0.057-0.004,0.086-0.012s0.052-0.015,0.064-0.02h0.009v0.15c-0.032,0.008-0.065,0.016-0.103,0.021s-0.071,0.009-0.1,0.009
		c-0.103,0-0.181-0.028-0.231-0.082c-0.053-0.056-0.08-0.143-0.08-0.264v-0.529h-0.114v-0.142h0.114v-0.286h0.168v0.286h0.346
		V15.711z M49.174,16.566h-0.169v-0.568c0-0.042-0.001-0.084-0.007-0.124c-0.004-0.04-0.012-0.071-0.024-0.095
		c-0.014-0.026-0.033-0.045-0.059-0.059c-0.025-0.012-0.063-0.02-0.11-0.02c-0.047,0-0.094,0.012-0.141,0.035
		s-0.095,0.054-0.141,0.09c0.002,0.014,0.003,0.029,0.003,0.048c0.003,0.019,0.003,0.036,0.003,0.054v0.639h-0.167v-0.568
		c0-0.043-0.004-0.086-0.006-0.125c-0.004-0.04-0.013-0.071-0.024-0.094c-0.016-0.027-0.035-0.046-0.061-0.059
		c-0.025-0.012-0.062-0.02-0.109-0.02c-0.047,0-0.093,0.011-0.139,0.035c-0.046,0.021-0.092,0.05-0.139,0.085v0.745h-0.167v-0.997
		h0.167v0.11c0.053-0.043,0.105-0.078,0.158-0.102c0.052-0.023,0.105-0.037,0.166-0.037c0.067,0,0.125,0.014,0.172,0.043
		c0.048,0.029,0.083,0.068,0.107,0.119c0.066-0.057,0.129-0.099,0.184-0.123c0.057-0.025,0.116-0.039,0.18-0.039
		c0.109,0,0.19,0.034,0.242,0.1c0.053,0.066,0.08,0.16,0.08,0.278V16.566z"/>
</g>
</svg>
