<?xml version="1.0" encoding="utf-8"?>
<!-- Generator: Adobe Illustrator 16.0.0, SVG Export Plug-In . SVG Version: 6.00 Build 0)  -->
<!DOCTYPE svg PUBLIC "-//W3C//DTD SVG 1.1//EN" "http://www.w3.org/Graphics/SVG/1.1/DTD/svg11.dtd">
<svg version="1.1" id="Layer_1" xmlns="http://www.w3.org/2000/svg" xmlns:xlink="http://www.w3.org/1999/xlink" x="0px" y="0px"
	 width="61.502px" height="38.439px" viewBox="0 0 61.502 38.439" enable-background="new 0 0 61.502 38.439" xml:space="preserve">
<g>
	<polygon fill="#F9F9F9" points="43.696,20.57 46.163,20.57 45.275,16.251 	"/>
	<path fill="#F9F9F9" d="M60.053-0.341H2.649c-1.132,0-2.049,0.917-2.049,2.05v34.339c0,1.132,0.917,2.05,2.049,2.05h57.403
		c1.132,0,2.049-0.918,2.049-2.05V1.709C62.102,0.576,61.185-0.341,60.053-0.341z M18.694,24.652l-2.606-10.014
		c-0.063-0.038-0.13-0.082-0.192-0.119c-0.084-0.047-0.168-0.094-0.25-0.139c-0.163-0.09-0.322-0.172-0.478-0.248
		c-0.069-0.033-0.142-0.07-0.21-0.103c-0.199-0.093-0.391-0.177-0.569-0.249c-0.013-0.006-0.028-0.014-0.042-0.019
		c-0.192-0.077-0.367-0.142-0.527-0.196c-0.058-0.02-0.107-0.035-0.159-0.053c-0.098-0.032-0.192-0.063-0.271-0.086
		c-0.044-0.014-0.086-0.025-0.124-0.036c-0.07-0.02-0.135-0.037-0.182-0.05c-0.02-0.004-0.047-0.012-0.063-0.016
		c-0.041-0.01-0.079-0.018-0.079-0.018l0.055-0.195h4.735c1.304,0,1.425,1.039,1.425,1.039l1.011,5.188V19.34l0.339,1.709
		l2.865-7.936h3.232l-4.779,11.539H18.694z M25.899,24.652l1.876-11.539h3.006l-1.878,11.539H25.899z M34.146,24.852
		c-2.051,0-3.392-0.652-3.392-0.652l0.446-2.59c1.231,0.986,4.958,1.267,4.958-0.299s-4.155-1.603-4.155-4.584
		c0-3.168,3.54-3.82,5.032-3.82c1.378,0,2.702,0.503,2.702,0.503l-0.431,2.479c-1.284-0.708-4.21-0.876-4.21,0.429
		s4.192,1.584,4.192,4.584C39.289,23.789,36.195,24.852,34.146,24.852z M47.003,24.652l-0.353-1.714h-3.82l-0.625,1.714h-3.132
		l4.48-10.68c0,0,0.272-0.859,1.387-0.859h2.415l2.405,11.539H47.003z"/>
</g>
</svg>
