<?xml version="1.0" encoding="utf-8"?>
<!-- Generator: Adobe Illustrator 16.0.0, SVG Export Plug-In . SVG Version: 6.00 Build 0)  -->
<!DOCTYPE svg PUBLIC "-//W3C//DTD SVG 1.1//EN" "http://www.w3.org/Graphics/SVG/1.1/DTD/svg11.dtd">
<svg version="1.1" id="Layer_1" xmlns="http://www.w3.org/2000/svg" xmlns:xlink="http://www.w3.org/1999/xlink" x="0px" y="0px"
	 width="55.242px" height="131px" viewBox="0 0 55.242 131" enable-background="new 0 0 55.242 131" xml:space="preserve">
<g>
	<path fill-rule="evenodd" clip-rule="evenodd" fill="#FFFFFF" d="M44.193,20.518H43.91c0.783,0,1.861,0.254,1.861-0.693V6.085
		c0-0.943-1.078-2.929-1.861-2.929h-1.773c1,1.578,2.057,3.971,2.057,5.756V20.518z"/>
	<path fill-rule="evenodd" clip-rule="evenodd" fill="#FFFFFF" d="M12.221,3.156h-1.775c-0.783,0-0.975,1.985-0.975,2.929v13.739
		c0,0.947,0.191,0.693,0.975,0.693h0.604V8.912C11.049,7.127,11.221,4.734,12.221,3.156z"/>
	<g>
		<path fill-rule="evenodd" clip-rule="evenodd" fill="#FFFFFF" d="M10.52,74.291c8.221-0.716,14.789-7.283,15.506-15.504
			C17.807,59.504,11.236,66.072,10.52,74.291z"/>
		<path fill-rule="evenodd" clip-rule="evenodd" fill="#FFFFFF" d="M29.217,55.205c8.219-0.717,14.789-7.285,15.506-15.507
			C36.502,40.415,29.934,46.984,29.217,55.205z"/>
		<path fill-rule="evenodd" clip-rule="evenodd" fill="#FFFFFF" d="M10.52,39.698c0.717,8.222,7.287,14.79,15.506,15.507
			C25.309,46.984,18.74,40.415,10.52,39.698z"/>
		<path fill-rule="evenodd" clip-rule="evenodd" fill="#FFFFFF" d="M46.906,22.096h-2.713v-1.578H42.01
			c-0.781,0-0.973,0.254-0.973-0.693V6.085c0-0.943,0.191-2.929,0.973-2.929h0.127C40.695,1.578,38.432,0,35.857,0H18.496
			c-2.574,0-4.836,1.578-6.275,3.156h0.123c0.783,0,1.861,1.985,1.861,2.929v13.739c0,0.947-1.078,0.693-1.861,0.693h-1.295v1.578
			H7.447C3.09,22.096,0,26.649,0,31.008v93.121C0,128.487,3.09,131,7.447,131h39.459c4.359,0,8.336-2.513,8.336-6.871V31.008
			C55.242,26.649,51.266,22.096,46.906,22.096z M34.723,6.085c0-0.943,0.191-2.929,0.975-2.929h1.898
			c0.783,0,1.863,1.985,1.863,2.929v13.739c0,0.947-1.08,0.693-1.863,0.693h-1.898c-0.783,0-0.975,0.254-0.975-0.693V6.085z
			 M28.41,6.085c0-0.943,0.191-2.929,0.975-2.929h1.898c0.783,0,1.861,1.985,1.861,2.929v13.739c0,0.947-1.078,0.693-1.861,0.693
			h-1.898c-0.783,0-0.975,0.254-0.975-0.693V6.085z M22.098,6.085c0-0.943,0.189-2.929,0.973-2.929h1.9
			c0.781,0,1.861,1.985,1.861,2.929v13.739c0,0.947-1.08,0.693-1.861,0.693h-1.9c-0.783,0-0.973,0.254-0.973-0.693V6.085z
			 M15.783,6.085c0-0.943,0.191-2.929,0.975-2.929h1.898c0.783,0,1.861,1.985,1.861,2.929v13.739c0,0.947-1.078,0.693-1.861,0.693
			h-1.898c-0.783,0-0.975,0.254-0.975-0.693V6.085z M47.652,38.2c0,8.684-5.59,16.068-13.354,18.795
			c7.764,2.727,13.354,10.11,13.354,18.795v1.432h-1.432c-8.484,0-15.727-5.336-18.6-12.821
			c-2.873,7.485-10.115,12.821-18.598,12.821H7.59V75.79c0-8.685,5.592-16.068,13.354-18.795C13.182,54.269,7.59,46.884,7.59,38.2
			V36.77h1.434c8.482,0,15.725,5.336,18.598,12.82c2.873-7.484,10.115-12.82,18.6-12.82h1.432V38.2z"/>
		<path fill-rule="evenodd" clip-rule="evenodd" fill="#FFFFFF" d="M44.723,74.291c-0.717-8.219-7.287-14.787-15.506-15.504
			C29.934,67.008,36.502,73.575,44.723,74.291z"/>
	</g>
</g>
</svg>
