<?xml version="1.0" encoding="utf-8"?>
<!-- Generator: Adobe Illustrator 16.0.0, SVG Export Plug-In . SVG Version: 6.00 Build 0)  -->
<!DOCTYPE svg PUBLIC "-//W3C//DTD SVG 1.1//EN" "http://www.w3.org/Graphics/SVG/1.1/DTD/svg11.dtd">
<svg version="1.1" id="Layer_1" xmlns="http://www.w3.org/2000/svg" xmlns:xlink="http://www.w3.org/1999/xlink" x="0px" y="0px"
	 width="16px" height="54.674px" viewBox="0 0 16 54.674" enable-background="new 0 0 16 54.674" xml:space="preserve">
<path fill="#FFFFFF" d="M15.156,41.604c0.207,0,0.395,0.168,0.533,0.302L16,40.674H8.542v-9.993c0.146,0.014,0.29,0.042,0.437,0.042
	c2.188,0,4.083-1.561,4.504-3.712l0.089-0.454l-0.454-0.089c-0.294-0.058-0.594-0.087-0.892-0.087c-1.495,0-2.839,0.738-3.684,1.885
	v-5.644c0.146,0.015,0.29,0.043,0.436,0.043c2.188,0,4.084-1.562,4.505-3.713l0.089-0.454l-0.454-0.089
	c-0.294-0.058-0.594-0.087-0.892-0.087c-1.495,0-2.839,0.738-3.684,1.886V10.021c1.138,1.83,3.161,3.055,5.47,3.055h0.463v-0.463
	c0-2.807-1.807-5.194-4.316-6.075c2.51-0.881,4.316-3.269,4.316-6.075V0h-0.463C11.27,0,8.929,1.725,8,4.144
	C7.071,1.725,4.73,0,1.988,0H1.525v0.463c0,2.807,1.807,5.194,4.316,6.075c-2.51,0.881-4.316,3.269-4.316,6.075v0.463h0.463
	c2.366,0,4.434-1.286,5.554-3.192v6.979c-0.733-1.604-2.339-2.695-4.16-2.695c-0.298,0-0.599,0.029-0.894,0.088l-0.453,0.089
	l0.089,0.454C2.546,16.949,4.44,18.51,6.63,18.51c0.297,0,0.596-0.029,0.89-0.087l0.022-0.004v6.502
	c-0.733-1.604-2.339-2.695-4.161-2.695c-0.298,0-0.598,0.029-0.892,0.087l-0.454,0.089l0.089,0.454
	c0.421,2.151,2.316,3.713,4.506,3.713c0.297,0,0.596-0.029,0.89-0.087l0.022-0.004v14.196H0l0.311,1.232
	c0.139-0.134,0.326-0.26,0.533-0.26c0.424,0,0.767,0.322,0.767,0.746s-0.343,0.756-0.767,0.756c-0.081,0-0.158-0.021-0.232-0.045
	l0.55,2.322c0.265,0.121,0.449,0.385,0.449,0.695c0,0.182-0.065,0.347-0.173,0.478l1.492,6.313c0.092-0.039,0.193-0.062,0.3-0.062
	c0.423,0,0.767,0.343,0.767,0.766c0,0.408-0.319,0.438-0.721,0.462l0.212,0.597h9.025l0.212-0.597
	c-0.401-0.024-0.721-0.204-0.721-0.612c0-0.423,0.344-0.69,0.767-0.69c0.106,0,0.208,0.06,0.3,0.099l1.491-6.293
	c-0.106-0.132-0.173-0.288-0.173-0.471c0-0.31,0.186-0.57,0.45-0.691l0.549-2.322c-0.073,0.023-0.15,0.041-0.231,0.041
	c-0.424,0-0.768-0.343-0.768-0.766C14.389,41.947,14.732,41.604,15.156,41.604z M12.445,27.313
	c-0.523,1.533-2.043,2.589-3.687,2.477C9.282,28.257,10.799,27.214,12.445,27.313z M12.445,19.255
	c-0.522,1.532-2.056,2.589-3.687,2.478C9.282,20.2,10.799,19.15,12.445,19.255z M2.473,12.129c0.231-2.657,2.354-4.78,5.012-5.012
	C7.253,9.774,5.13,11.897,2.473,12.129z M2.473,0.947c2.657,0.231,4.78,2.354,5.012,5.012C4.827,5.728,2.704,3.604,2.473,0.947z
	 M6.63,17.584c-1.58,0-2.969-1.02-3.469-2.484c1.655-0.075,3.163,0.945,3.687,2.478C6.775,17.582,6.702,17.584,6.63,17.584z
	 M6.63,25.643c-1.58,0-2.969-1.02-3.469-2.484c1.655-0.097,3.163,0.945,3.687,2.478C6.775,25.641,6.702,25.643,6.63,25.643z
	 M13.527,12.129c-2.606-0.228-4.688-2.278-4.985-4.864V7.122C11.187,7.365,13.297,9.48,13.527,12.129z M13.527,0.947
	c-0.231,2.657-2.354,4.78-5.012,5.012C8.747,3.302,10.87,1.179,13.527,0.947z M3.229,50.635c-0.424,0-0.767-0.344-0.767-0.768
	c0-0.423,0.343-0.766,0.767-0.766c0.423,0,0.767,0.343,0.767,0.766C3.996,50.291,3.652,50.635,3.229,50.635z M3.229,46.886
	c-0.424,0-0.767-0.343-0.767-0.767c0-0.423,0.343-0.767,0.767-0.767c0.423,0,0.767,0.344,0.767,0.767
	C3.996,46.543,3.652,46.886,3.229,46.886z M3.229,43.138c-0.424,0-0.767-0.344-0.767-0.767s0.343-0.767,0.767-0.767
	c0.423,0,0.767,0.344,0.767,0.767S3.652,43.138,3.229,43.138z M5.615,54.383c-0.424,0-0.768-0.344-0.768-0.768
	c0-0.423,0.344-0.766,0.768-0.766c0.423,0,0.767,0.343,0.767,0.766C6.382,54.039,6.038,54.383,5.615,54.383z M5.615,50.635
	c-0.424,0-0.768-0.344-0.768-0.768c0-0.423,0.344-0.766,0.768-0.766c0.423,0,0.767,0.343,0.767,0.766
	C6.382,50.291,6.038,50.635,5.615,50.635z M5.615,46.886c-0.424,0-0.768-0.343-0.768-0.767c0-0.423,0.344-0.767,0.768-0.767
	c0.423,0,0.767,0.344,0.767,0.767C6.382,46.543,6.038,46.886,5.615,46.886z M5.615,43.138c-0.424,0-0.768-0.344-0.768-0.767
	s0.344-0.767,0.768-0.767c0.423,0,0.767,0.344,0.767,0.767S6.038,43.138,5.615,43.138z M8,54.383c-0.424,0-0.767-0.344-0.767-0.768
	c0-0.423,0.343-0.766,0.767-0.766c0.423,0,0.767,0.343,0.767,0.766C8.767,54.039,8.423,54.383,8,54.383z M8,50.635
	c-0.424,0-0.767-0.344-0.767-0.768c0-0.423,0.343-0.766,0.767-0.766c0.423,0,0.767,0.343,0.767,0.766
	C8.767,50.291,8.423,50.635,8,50.635z M8,46.886c-0.424,0-0.767-0.343-0.767-0.767c0-0.423,0.343-0.767,0.767-0.767
	c0.423,0,0.767,0.344,0.767,0.767C8.767,46.543,8.423,46.886,8,46.886z M8,43.138c-0.424,0-0.767-0.344-0.767-0.767
	S7.576,41.604,8,41.604c0.423,0,0.767,0.344,0.767,0.767S8.423,43.138,8,43.138z M10.385,54.383c-0.423,0-0.767-0.344-0.767-0.768
	c0-0.423,0.344-0.766,0.767-0.766c0.424,0,0.768,0.343,0.768,0.766C11.152,54.039,10.809,54.383,10.385,54.383z M10.385,50.635
	c-0.423,0-0.767-0.344-0.767-0.768c0-0.423,0.344-0.766,0.767-0.766c0.424,0,0.768,0.343,0.768,0.766
	C11.152,50.291,10.809,50.635,10.385,50.635z M10.385,46.886c-0.423,0-0.767-0.343-0.767-0.767c0-0.423,0.344-0.767,0.767-0.767
	c0.424,0,0.768,0.344,0.768,0.767C11.152,46.543,10.809,46.886,10.385,46.886z M10.385,43.138c-0.423,0-0.767-0.344-0.767-0.767
	s0.344-0.767,0.767-0.767c0.424,0,0.768,0.344,0.768,0.767S10.809,43.138,10.385,43.138z M12.771,50.635
	c-0.423,0-0.767-0.344-0.767-0.768c0-0.423,0.344-0.766,0.767-0.766s0.767,0.343,0.767,0.766
	C13.537,50.291,13.193,50.635,12.771,50.635z M12.771,46.886c-0.423,0-0.767-0.343-0.767-0.767c0-0.423,0.344-0.767,0.767-0.767
	s0.767,0.344,0.767,0.767C13.537,46.543,13.193,46.886,12.771,46.886z M12.771,43.138c-0.423,0-0.767-0.344-0.767-0.767
	s0.344-0.767,0.767-0.767s0.767,0.344,0.767,0.767S13.193,43.138,12.771,43.138z"/>
</svg>
