<?xml version="1.0" encoding="utf-8"?>
<!-- Generator: Adobe Illustrator 16.0.0, SVG Export Plug-In . SVG Version: 6.00 Build 0)  -->
<!DOCTYPE svg PUBLIC "-//W3C//DTD SVG 1.1//EN" "http://www.w3.org/Graphics/SVG/1.1/DTD/svg11.dtd">
<svg version="1.1" id="Layer_1" xmlns="http://www.w3.org/2000/svg" xmlns:xlink="http://www.w3.org/1999/xlink" x="0px" y="0px"
	 width="32.588px" height="32.588px" viewBox="0 0 32.588 32.588" enable-background="new 0 0 32.588 32.588" xml:space="preserve">
<path fill="#FFFFFF" d="M16.736,32.588h-0.885c-2.88,0-5.223-2.343-5.223-5.223v-5.406H5.223C2.343,21.959,0,19.616,0,16.736v-0.886
	c0-2.88,2.343-5.222,5.223-5.222h5.406V5.223c0-2.88,2.343-5.223,5.223-5.223h0.885c2.881,0,5.224,2.343,5.224,5.223v5.406h5.405
	c2.88,0,5.223,2.342,5.223,5.222v0.886c0,2.88-2.343,5.223-5.223,5.223H21.96v5.406C21.96,30.245,19.617,32.588,16.736,32.588z
	 M5.223,12.217c-2.004,0-3.635,1.63-3.635,3.634v0.886c0,2.004,1.631,3.635,3.635,3.635h6.2c0.438,0,0.794,0.355,0.794,0.794v6.2
	c0,2.004,1.631,3.635,3.635,3.635h0.885c2.005,0,3.636-1.631,3.636-3.635v-6.2c0-0.438,0.355-0.794,0.794-0.794h6.199
	c2.004,0,3.635-1.631,3.635-3.635v-0.886c0-2.004-1.631-3.634-3.635-3.634h-6.199c-0.438,0-0.794-0.355-0.794-0.794v-6.2
	c0-2.004-1.631-3.635-3.636-3.635h-0.885c-2.004,0-3.635,1.631-3.635,3.635v6.2c0,0.438-0.355,0.794-0.794,0.794H5.223z"/>
</svg>
