<?xml version="1.0" encoding="utf-8"?>
<!-- Generator: Adobe Illustrator 16.0.0, SVG Export Plug-In . SVG Version: 6.00 Build 0)  -->
<!DOCTYPE svg PUBLIC "-//W3C//DTD SVG 1.1//EN" "http://www.w3.org/Graphics/SVG/1.1/DTD/svg11.dtd">
<svg version="1.1" id="Layer_1" xmlns="http://www.w3.org/2000/svg" xmlns:xlink="http://www.w3.org/1999/xlink" x="0px" y="0px"
	 width="26.926px" height="32.536px" viewBox="0 0 26.926 32.536" enable-background="new 0 0 26.926 32.536" xml:space="preserve">
<g>
	<path fill="#FFFFFF" d="M6.378,32.536C2.741,32.536,0,29.66,0,25.847c0-3.602,5.771-11.4,5.83-11.456
		c0.147-0.141,0.343-0.219,0.546-0.219c0.195,0.011,0.42,0.087,0.569,0.236c0.277,0.276,5.809,7.929,5.809,11.438
		C12.754,29.66,10.013,32.536,6.378,32.536z M6.389,16.31c-1.483,2.127-4.801,7.246-4.801,9.537c0,2.908,2.06,5.102,4.79,5.102
		c2.729,0,4.788-2.193,4.788-5.102C11.166,23.594,7.838,18.382,6.389,16.31z"/>
	<path fill="#FFFFFF" d="M20.55,18.363c-3.637,0-6.378-2.875-6.378-6.688c0-3.61,5.758-11.385,5.816-11.442
		C20.137,0.084,20.338,0,20.548,0c0.001,0,0.001,0,0.002,0c0.21,0,0.419,0.089,0.568,0.237c0.276,0.276,5.808,7.928,5.808,11.438
		C26.926,15.488,24.185,18.363,20.55,18.363z M20.559,2.132c-1.427,2.06-4.799,7.258-4.799,9.543c0,2.907,2.06,5.101,4.79,5.101
		c2.729,0,4.788-2.193,4.788-5.101C25.338,9.406,22.005,4.196,20.559,2.132z"/>
</g>
</svg>
