<?xml version="1.0" encoding="utf-8"?>
<!-- Generator: Adobe Illustrator 16.0.0, SVG Export Plug-In . SVG Version: 6.00 Build 0)  -->
<!DOCTYPE svg PUBLIC "-//W3C//DTD SVG 1.1//EN" "http://www.w3.org/Graphics/SVG/1.1/DTD/svg11.dtd">
<svg version="1.1" id="Layer_1" xmlns="http://www.w3.org/2000/svg" xmlns:xlink="http://www.w3.org/1999/xlink" x="0px" y="0px"
	 width="42.289px" height="41.438px" viewBox="0 0 42.289 41.438" enable-background="new 0 0 42.289 41.438" xml:space="preserve">
<g>
	<path fill="#FFFFFF" d="M31.69,12.563c-0.23,0-0.459-0.1-0.616-0.293c-0.277-0.341-0.226-0.841,0.115-1.117l4.739-3.852
		c0.339-0.277,0.84-0.227,1.117,0.115c0.277,0.341,0.226,0.841-0.115,1.117l-4.739,3.852C32.044,12.505,31.867,12.563,31.69,12.563z
		"/>
	<path fill="#FFFFFF" d="M41.495,22.07h-6.22c-0.438,0-0.794-0.355-0.794-0.794s0.355-0.794,0.794-0.794h6.22
		c0.438,0,0.794,0.355,0.794,0.794S41.934,22.07,41.495,22.07z"/>
	<path fill="#FFFFFF" d="M37.007,36.318c-0.203,0-0.406-0.077-0.562-0.232l-4.739-4.738c-0.311-0.31-0.311-0.813,0-1.123
		s0.813-0.311,1.123,0l4.739,4.738c0.311,0.31,0.311,0.813,0,1.123C37.413,36.241,37.21,36.318,37.007,36.318z"/>
	<path fill="#FFFFFF" d="M10.6,12.563c-0.177,0-0.354-0.058-0.501-0.178L5.359,8.533C5.019,8.257,4.967,7.757,5.244,7.416
		c0.277-0.342,0.777-0.393,1.117-0.115l4.739,3.852c0.341,0.276,0.393,0.776,0.115,1.117C11.059,12.463,10.83,12.563,10.6,12.563z"
		/>
	<path fill="#FFFFFF" d="M7.015,22.07H0.794C0.355,22.07,0,21.715,0,21.276s0.355-0.794,0.794-0.794h6.221
		c0.438,0,0.794,0.355,0.794,0.794S7.453,22.07,7.015,22.07z"/>
	<path fill="#FFFFFF" d="M4.94,36.053c-0.203,0-0.406-0.077-0.562-0.232c-0.311-0.311-0.311-0.813,0-1.123l4.739-4.738
		c0.311-0.311,0.813-0.311,1.123,0s0.311,0.813,0,1.123L5.502,35.82C5.347,35.976,5.144,36.053,4.94,36.053z"/>
	<path fill="#FFFFFF" d="M21.292,8.4c-0.438,0-0.794-0.355-0.794-0.794V0.794C20.498,0.355,20.854,0,21.292,0
		s0.794,0.355,0.794,0.794v6.813C22.086,8.045,21.73,8.4,21.292,8.4z"/>
	<path fill="#FFFFFF" d="M22.765,41.438h-3.24c-2.112,0-3.831-1.719-3.831-3.831V32.86c-2.99-5.024-4.506-8.754-4.506-11.086
		c0-5.968,4.28-10.468,9.956-10.468c5.677,0,9.958,4.5,9.958,10.468c0,2.322-1.516,6.036-4.506,11.04v4.792
		C26.596,39.719,24.877,41.438,22.765,41.438z M21.144,12.895c-4.771,0-8.368,3.817-8.368,8.88c0,2.012,1.561,5.727,4.394,10.459
		c0.073,0.123,0.112,0.265,0.112,0.408v4.965c0,1.236,1.007,2.243,2.243,2.243h3.24c1.236,0,2.243-1.007,2.243-2.243v-5.012
		c0-0.145,0.039-0.285,0.113-0.409c2.873-4.781,4.393-8.381,4.393-10.411C29.514,16.712,25.915,12.895,21.144,12.895z"/>
</g>
</svg>
