<?xml version="1.0" encoding="utf-8"?>
<!-- Generator: Adobe Illustrator 16.0.0, SVG Export Plug-In . SVG Version: 6.00 Build 0)  -->
<!DOCTYPE svg PUBLIC "-//W3C//DTD SVG 1.1//EN" "http://www.w3.org/Graphics/SVG/1.1/DTD/svg11.dtd">
<svg version="1.1" id="Layer_1" xmlns="http://www.w3.org/2000/svg" xmlns:xlink="http://www.w3.org/1999/xlink" x="0px" y="0px"
	 width="52px" height="92.026px" viewBox="0 0 52 92.026" enable-background="new 0 0 52 92.026" xml:space="preserve">
<rect x="24.592" y="11.111" fill="#FFFFFF" width="2.826" height="35.646"/>
<path fill="#FFFFFF" d="M29.174,14.089c-0.966,0-1.94-0.095-2.896-0.283l-1.474-0.289l0.29-1.475C26.465,5.064,32.613,0,39.712,0
	c0.965,0,1.938,0.095,2.894,0.283l1.474,0.289L43.79,2.046C42.421,9.024,36.273,14.089,29.174,14.089z M28.459,11.063
	c5.364,0.326,10.266-3.063,11.966-8.036C35.034,2.689,30.16,6.09,28.459,11.063z"/>
<path fill="#FFFFFF" d="M1.01,48.626c0.449-0.436,1.059-0.546,1.734-0.546c1.375,0,2.49,1.197,2.49,2.573
	c0,1.375-1.115,2.531-2.49,2.531c-0.266,0-0.516-0.032-0.756-0.108l1.785,7.565c0.859,0.393,1.461,1.262,1.461,2.27
	c0,0.592-0.215,1.131-0.561,1.557L9.52,84.985c0.299-0.127,0.629-0.197,0.977-0.197c1.375,0,2.49,1.115,2.49,2.49
	c0,1.326-1.037,2.075-2.342,2.155l0.689,2.593h29.332l0.688-2.593c-1.303-0.08-2.342-0.991-2.342-2.317
	c0-1.375,1.117-2.409,2.492-2.409c0.346,0,0.676,0.111,0.977,0.24l4.844-20.496c-0.344-0.427-0.561-0.954-0.561-1.546
	c0-1.008,0.602-1.865,1.463-2.258l1.783-7.555c-0.238,0.076-0.488,0.131-0.754,0.131c-1.375,0-2.492-1.115-2.492-2.49
	c0-1.376,1.117-2.492,2.492-2.492c0.674,0,1.285-0.051,1.734,0.385l1.01-4.6H0L1.01,48.626z M41.504,48.241
	c1.375,0,2.492,1.117,2.492,2.492s-1.117,2.492-2.492,2.492s-2.492-1.117-2.492-2.492S40.129,48.241,41.504,48.241z M41.504,60.423
	c1.375,0,2.492,1.117,2.492,2.492c0,1.377-1.117,2.492-2.492,2.492s-2.492-1.115-2.492-2.492
	C39.012,61.54,40.129,60.423,41.504,60.423z M41.504,72.606c1.375,0,2.492,1.115,2.492,2.49c0,1.377-1.117,2.492-2.492,2.492
	s-2.492-1.115-2.492-2.492C39.012,73.722,40.129,72.606,41.504,72.606z M33.752,48.241c1.375,0,2.492,1.117,2.492,2.492
	s-1.117,2.492-2.492,2.492s-2.492-1.117-2.492-2.492S32.377,48.241,33.752,48.241z M33.752,60.423c1.375,0,2.492,1.117,2.492,2.492
	c0,1.377-1.117,2.492-2.492,2.492s-2.492-1.115-2.492-2.492C31.26,61.54,32.377,60.423,33.752,60.423z M33.752,72.606
	c1.375,0,2.492,1.115,2.492,2.49c0,1.377-1.117,2.492-2.492,2.492s-2.492-1.115-2.492-2.492
	C31.26,73.722,32.377,72.606,33.752,72.606z M33.752,84.788c1.375,0,2.492,1.115,2.492,2.49c0,1.377-1.117,2.492-2.492,2.492
	s-2.492-1.115-2.492-2.492C31.26,85.903,32.377,84.788,33.752,84.788z M26,48.241c1.375,0,2.492,1.117,2.492,2.492
	S27.375,53.226,26,53.226c-1.377,0-2.492-1.117-2.492-2.492S24.623,48.241,26,48.241z M26,60.423c1.375,0,2.492,1.117,2.492,2.492
	c0,1.377-1.117,2.492-2.492,2.492c-1.377,0-2.492-1.115-2.492-2.492C23.508,61.54,24.623,60.423,26,60.423z M26,72.606
	c1.375,0,2.492,1.115,2.492,2.49c0,1.377-1.117,2.492-2.492,2.492c-1.377,0-2.492-1.115-2.492-2.492
	C23.508,73.722,24.623,72.606,26,72.606z M26,84.788c1.375,0,2.492,1.115,2.492,2.49c0,1.377-1.117,2.492-2.492,2.492
	c-1.377,0-2.492-1.115-2.492-2.492C23.508,85.903,24.623,84.788,26,84.788z M18.248,48.241c1.375,0,2.492,1.117,2.492,2.492
	s-1.117,2.492-2.492,2.492c-1.377,0-2.492-1.117-2.492-2.492S16.871,48.241,18.248,48.241z M18.248,60.423
	c1.375,0,2.492,1.117,2.492,2.492c0,1.377-1.117,2.492-2.492,2.492c-1.377,0-2.492-1.115-2.492-2.492
	C15.756,61.54,16.871,60.423,18.248,60.423z M18.248,72.606c1.375,0,2.492,1.115,2.492,2.49c0,1.377-1.117,2.492-2.492,2.492
	c-1.377,0-2.492-1.115-2.492-2.492C15.756,73.722,16.871,72.606,18.248,72.606z M18.248,84.788c1.375,0,2.492,1.115,2.492,2.49
	c0,1.377-1.117,2.492-2.492,2.492c-1.377,0-2.492-1.115-2.492-2.492C15.756,85.903,16.871,84.788,18.248,84.788z M10.496,48.241
	c1.375,0,2.49,1.117,2.49,2.492s-1.115,2.492-2.49,2.492c-1.377,0-2.492-1.117-2.492-2.492S9.119,48.241,10.496,48.241z
	 M10.496,60.423c1.375,0,2.49,1.117,2.49,2.492c0,1.377-1.115,2.492-2.49,2.492c-1.377,0-2.492-1.115-2.492-2.492
	C8.004,61.54,9.119,60.423,10.496,60.423z M10.496,72.606c1.375,0,2.49,1.115,2.49,2.49c0,1.377-1.115,2.492-2.49,2.492
	c-1.377,0-2.492-1.115-2.492-2.492C8.004,73.722,9.119,72.606,10.496,72.606z"/>
</svg>
