<?xml version="1.0" encoding="utf-8"?>
<!-- Generator: Adobe Illustrator 16.0.0, SVG Export Plug-In . SVG Version: 6.00 Build 0)  -->
<!DOCTYPE svg PUBLIC "-//W3C//DTD SVG 1.1//EN" "http://www.w3.org/Graphics/SVG/1.1/DTD/svg11.dtd">
<svg version="1.1" id="Layer_1" xmlns="http://www.w3.org/2000/svg" xmlns:xlink="http://www.w3.org/1999/xlink" x="0px" y="0px"
	 width="52px" height="118.173px" viewBox="0 0 52 118.173" enable-background="new 0 0 52 118.173" xml:space="preserve">
<rect x="24.592" y="11.066" fill="#FFFFFF" width="2.826" height="61.838"/>
<path fill="#FFFFFF" d="M29.171,14.093c-0.965,0-1.938-0.096-2.893-0.282l-1.475-0.29l0.29-1.475C26.465,5.066,32.614,0,39.715,0
	c0.964,0,1.937,0.095,2.89,0.281l1.475,0.29L43.79,2.045C42.421,9.025,36.272,14.093,29.171,14.093z M28.459,11.066
	c5.374,0.343,10.266-3.065,11.966-8.041C35.035,2.71,30.16,6.093,28.459,11.066z"/>
<path fill="#FFFFFF" d="M29.174,40.235c-0.966,0-1.94-0.095-2.896-0.283l-1.474-0.289l0.29-1.475
	c1.371-6.978,7.52-12.042,14.618-12.042c0.965,0,1.938,0.095,2.894,0.283l1.474,0.289l-0.289,1.474
	C42.421,35.171,36.273,40.235,29.174,40.235z M28.459,37.209c5.364,0.326,10.266-3.063,11.966-8.036
	C35.034,28.836,30.16,32.236,28.459,37.209z"/>
<path fill="#FFFFFF" d="M21.552,26.757C21.552,26.757,21.552,26.757,21.552,26.757c-7.1-0.001-13.247-5.066-14.618-12.044
	l-0.29-1.475l1.474-0.289c0.956-0.188,1.93-0.283,2.896-0.283c7.1,0,13.246,5.065,14.615,12.045l0.289,1.474l-1.475,0.29
	C23.488,26.661,22.516,26.757,21.552,26.757z M10.299,15.692c1.626,4.753,6.129,8.06,11.252,8.06c0.001,0,0.001,0,0.001,0
	c0.236,0,0.474-0.007,0.711-0.021C20.563,18.758,15.698,15.371,10.299,15.692z"/>
<path fill="#FFFFFF" d="M1.01,74.772c0.449-0.436,1.059-0.546,1.734-0.546c1.375,0,2.49,1.197,2.49,2.573
	c0,1.375-1.115,2.531-2.49,2.531c-0.266,0-0.516-0.032-0.756-0.108l1.785,7.565c0.859,0.393,1.461,1.262,1.461,2.27
	c0,0.592-0.215,1.131-0.561,1.557l4.846,20.518c0.299-0.127,0.629-0.197,0.977-0.197c1.375,0,2.49,1.115,2.49,2.49
	c0,1.326-1.037,2.075-2.342,2.155l0.689,2.593h29.332l0.688-2.593c-1.303-0.08-2.342-0.991-2.342-2.317
	c0-1.375,1.117-2.409,2.492-2.409c0.346,0,0.676,0.111,0.977,0.24l4.844-20.496c-0.344-0.427-0.561-0.954-0.561-1.546
	c0-1.008,0.602-1.865,1.463-2.258l1.783-7.555c-0.238,0.076-0.488,0.131-0.754,0.131c-1.375,0-2.492-1.115-2.492-2.49
	c0-1.376,1.117-2.492,2.492-2.492c0.674,0,1.285-0.051,1.734,0.385l1.01-4.6H0L1.01,74.772z M41.504,74.388
	c1.375,0,2.492,1.117,2.492,2.492s-1.117,2.492-2.492,2.492s-2.492-1.117-2.492-2.492S40.129,74.388,41.504,74.388z M41.504,86.569
	c1.375,0,2.492,1.117,2.492,2.492c0,1.377-1.117,2.492-2.492,2.492s-2.492-1.115-2.492-2.492
	C39.012,87.687,40.129,86.569,41.504,86.569z M41.504,98.753c1.375,0,2.492,1.115,2.492,2.49c0,1.377-1.117,2.492-2.492,2.492
	s-2.492-1.115-2.492-2.492C39.012,99.868,40.129,98.753,41.504,98.753z M33.752,74.388c1.375,0,2.492,1.117,2.492,2.492
	s-1.117,2.492-2.492,2.492s-2.492-1.117-2.492-2.492S32.377,74.388,33.752,74.388z M33.752,86.569c1.375,0,2.492,1.117,2.492,2.492
	c0,1.377-1.117,2.492-2.492,2.492s-2.492-1.115-2.492-2.492C31.26,87.687,32.377,86.569,33.752,86.569z M33.752,98.753
	c1.375,0,2.492,1.115,2.492,2.49c0,1.377-1.117,2.492-2.492,2.492s-2.492-1.115-2.492-2.492
	C31.26,99.868,32.377,98.753,33.752,98.753z M33.752,110.935c1.375,0,2.492,1.115,2.492,2.49c0,1.377-1.117,2.492-2.492,2.492
	s-2.492-1.115-2.492-2.492C31.26,112.05,32.377,110.935,33.752,110.935z M26,74.388c1.375,0,2.492,1.117,2.492,2.492
	S27.375,79.372,26,79.372c-1.377,0-2.492-1.117-2.492-2.492S24.623,74.388,26,74.388z M26,86.569c1.375,0,2.492,1.117,2.492,2.492
	c0,1.377-1.117,2.492-2.492,2.492c-1.377,0-2.492-1.115-2.492-2.492C23.508,87.687,24.623,86.569,26,86.569z M26,98.753
	c1.375,0,2.492,1.115,2.492,2.49c0,1.377-1.117,2.492-2.492,2.492c-1.377,0-2.492-1.115-2.492-2.492
	C23.508,99.868,24.623,98.753,26,98.753z M26,110.935c1.375,0,2.492,1.115,2.492,2.49c0,1.377-1.117,2.492-2.492,2.492
	c-1.377,0-2.492-1.115-2.492-2.492C23.508,112.05,24.623,110.935,26,110.935z M18.248,74.388c1.375,0,2.492,1.117,2.492,2.492
	s-1.117,2.492-2.492,2.492c-1.377,0-2.492-1.117-2.492-2.492S16.871,74.388,18.248,74.388z M18.248,86.569
	c1.375,0,2.492,1.117,2.492,2.492c0,1.377-1.117,2.492-2.492,2.492c-1.377,0-2.492-1.115-2.492-2.492
	C15.756,87.687,16.871,86.569,18.248,86.569z M18.248,98.753c1.375,0,2.492,1.115,2.492,2.49c0,1.377-1.117,2.492-2.492,2.492
	c-1.377,0-2.492-1.115-2.492-2.492C15.756,99.868,16.871,98.753,18.248,98.753z M18.248,110.935c1.375,0,2.492,1.115,2.492,2.49
	c0,1.377-1.117,2.492-2.492,2.492c-1.377,0-2.492-1.115-2.492-2.492C15.756,112.05,16.871,110.935,18.248,110.935z M10.496,74.388
	c1.375,0,2.49,1.117,2.49,2.492s-1.115,2.492-2.49,2.492c-1.377,0-2.492-1.117-2.492-2.492S9.119,74.388,10.496,74.388z
	 M10.496,86.569c1.375,0,2.49,1.117,2.49,2.492c0,1.377-1.115,2.492-2.49,2.492c-1.377,0-2.492-1.115-2.492-2.492
	C8.004,87.687,9.119,86.569,10.496,86.569z M10.496,98.753c1.375,0,2.49,1.115,2.49,2.49c0,1.377-1.115,2.492-2.49,2.492
	c-1.377,0-2.492-1.115-2.492-2.492C8.004,99.868,9.119,98.753,10.496,98.753z"/>
</svg>
