<?xml version="1.0" encoding="utf-8"?>
<!-- Generator: Adobe Illustrator 16.0.0, SVG Export Plug-In . SVG Version: 6.00 Build 0)  -->
<!DOCTYPE svg PUBLIC "-//W3C//DTD SVG 1.1//EN" "http://www.w3.org/Graphics/SVG/1.1/DTD/svg11.dtd">
<svg version="1.1" id="Layer_1" xmlns="http://www.w3.org/2000/svg" xmlns:xlink="http://www.w3.org/1999/xlink" x="0px" y="0px"
	 width="52px" height="105.507px" viewBox="0 0 52 105.507" enable-background="new 0 0 52 105.507" xml:space="preserve">
<rect x="24.592" y="12.045" fill="#FFFFFF" width="2.826" height="48.193"/>
<path fill="#FFFFFF" d="M29.174,27.569c-0.966,0-1.94-0.095-2.896-0.283l-1.474-0.289l0.29-1.475
	c1.371-6.978,7.52-12.042,14.618-12.042c0.965,0,1.938,0.095,2.894,0.283l1.474,0.289l-0.289,1.474
	C42.421,22.505,36.273,27.569,29.174,27.569z M28.459,24.543c5.364,0.326,10.266-3.063,11.966-8.036
	C35.034,16.17,30.16,19.57,28.459,24.543z"/>
<path fill="#FFFFFF" d="M21.552,14.091C21.552,14.091,21.552,14.091,21.552,14.091C14.452,14.09,8.305,9.024,6.934,2.047
	l-0.29-1.475l1.474-0.289C9.073,0.095,10.047,0,11.013,0c7.1,0,13.246,5.065,14.615,12.045l0.289,1.474l-1.475,0.29
	C23.488,13.995,22.516,14.091,21.552,14.091z M10.299,3.026c1.626,4.753,6.129,8.06,11.252,8.06c0.001,0,0.001,0,0.001,0
	c0.236,0,0.474-0.007,0.711-0.021C20.563,6.092,15.698,2.705,10.299,3.026z"/>
<path fill="#FFFFFF" d="M1.01,62.106c0.449-0.436,1.059-0.546,1.734-0.546c1.375,0,2.49,1.197,2.49,2.573
	c0,1.375-1.115,2.531-2.49,2.531c-0.266,0-0.516-0.032-0.756-0.108l1.785,7.565c0.859,0.393,1.461,1.262,1.461,2.27
	c0,0.592-0.215,1.131-0.561,1.557L9.52,98.466c0.299-0.127,0.629-0.197,0.977-0.197c1.375,0,2.49,1.115,2.49,2.49
	c0,1.326-1.037,2.075-2.342,2.155l0.689,2.593h29.332l0.688-2.593c-1.303-0.08-2.342-0.991-2.342-2.317
	c0-1.375,1.117-2.409,2.492-2.409c0.346,0,0.676,0.111,0.977,0.24l4.844-20.496c-0.344-0.427-0.561-0.954-0.561-1.546
	c0-1.008,0.602-1.865,1.463-2.258l1.783-7.555c-0.238,0.076-0.488,0.131-0.754,0.131c-1.375,0-2.492-1.115-2.492-2.49
	c0-1.376,1.117-2.492,2.492-2.492c0.674,0,1.285-0.051,1.734,0.385l1.01-4.6H0L1.01,62.106z M41.504,61.722
	c1.375,0,2.492,1.117,2.492,2.492s-1.117,2.492-2.492,2.492s-2.492-1.117-2.492-2.492S40.129,61.722,41.504,61.722z M41.504,73.903
	c1.375,0,2.492,1.117,2.492,2.492c0,1.377-1.117,2.492-2.492,2.492s-2.492-1.115-2.492-2.492
	C39.012,75.021,40.129,73.903,41.504,73.903z M41.504,86.087c1.375,0,2.492,1.115,2.492,2.49c0,1.377-1.117,2.492-2.492,2.492
	s-2.492-1.115-2.492-2.492C39.012,87.202,40.129,86.087,41.504,86.087z M33.752,61.722c1.375,0,2.492,1.117,2.492,2.492
	s-1.117,2.492-2.492,2.492s-2.492-1.117-2.492-2.492S32.377,61.722,33.752,61.722z M33.752,73.903c1.375,0,2.492,1.117,2.492,2.492
	c0,1.377-1.117,2.492-2.492,2.492s-2.492-1.115-2.492-2.492C31.26,75.021,32.377,73.903,33.752,73.903z M33.752,86.087
	c1.375,0,2.492,1.115,2.492,2.49c0,1.377-1.117,2.492-2.492,2.492s-2.492-1.115-2.492-2.492
	C31.26,87.202,32.377,86.087,33.752,86.087z M33.752,98.269c1.375,0,2.492,1.115,2.492,2.49c0,1.377-1.117,2.492-2.492,2.492
	s-2.492-1.115-2.492-2.492C31.26,99.384,32.377,98.269,33.752,98.269z M26,61.722c1.375,0,2.492,1.117,2.492,2.492
	S27.375,66.706,26,66.706c-1.377,0-2.492-1.117-2.492-2.492S24.623,61.722,26,61.722z M26,73.903c1.375,0,2.492,1.117,2.492,2.492
	c0,1.377-1.117,2.492-2.492,2.492c-1.377,0-2.492-1.115-2.492-2.492C23.508,75.021,24.623,73.903,26,73.903z M26,86.087
	c1.375,0,2.492,1.115,2.492,2.49c0,1.377-1.117,2.492-2.492,2.492c-1.377,0-2.492-1.115-2.492-2.492
	C23.508,87.202,24.623,86.087,26,86.087z M26,98.269c1.375,0,2.492,1.115,2.492,2.49c0,1.377-1.117,2.492-2.492,2.492
	c-1.377,0-2.492-1.115-2.492-2.492C23.508,99.384,24.623,98.269,26,98.269z M18.248,61.722c1.375,0,2.492,1.117,2.492,2.492
	s-1.117,2.492-2.492,2.492c-1.377,0-2.492-1.117-2.492-2.492S16.871,61.722,18.248,61.722z M18.248,73.903
	c1.375,0,2.492,1.117,2.492,2.492c0,1.377-1.117,2.492-2.492,2.492c-1.377,0-2.492-1.115-2.492-2.492
	C15.756,75.021,16.871,73.903,18.248,73.903z M18.248,86.087c1.375,0,2.492,1.115,2.492,2.49c0,1.377-1.117,2.492-2.492,2.492
	c-1.377,0-2.492-1.115-2.492-2.492C15.756,87.202,16.871,86.087,18.248,86.087z M18.248,98.269c1.375,0,2.492,1.115,2.492,2.49
	c0,1.377-1.117,2.492-2.492,2.492c-1.377,0-2.492-1.115-2.492-2.492C15.756,99.384,16.871,98.269,18.248,98.269z M10.496,61.722
	c1.375,0,2.49,1.117,2.49,2.492s-1.115,2.492-2.49,2.492c-1.377,0-2.492-1.117-2.492-2.492S9.119,61.722,10.496,61.722z
	 M10.496,73.903c1.375,0,2.49,1.117,2.49,2.492c0,1.377-1.115,2.492-2.49,2.492c-1.377,0-2.492-1.115-2.492-2.492
	C8.004,75.021,9.119,73.903,10.496,73.903z M10.496,86.087c1.375,0,2.49,1.115,2.49,2.49c0,1.377-1.115,2.492-2.49,2.492
	c-1.377,0-2.492-1.115-2.492-2.492C8.004,87.202,9.119,86.087,10.496,86.087z"/>
</svg>
