<?xml version="1.0" encoding="utf-8"?>
<!-- Generator: Adobe Illustrator 16.0.0, SVG Export Plug-In . SVG Version: 6.00 Build 0)  -->
<!DOCTYPE svg PUBLIC "-//W3C//DTD SVG 1.1//EN" "http://www.w3.org/Graphics/SVG/1.1/DTD/svg11.dtd">
<svg version="1.1" id="Layer_1" xmlns="http://www.w3.org/2000/svg" xmlns:xlink="http://www.w3.org/1999/xlink" x="0px" y="0px"
	 width="52px" height="177.617px" viewBox="0 0 52 177.617" enable-background="new 0 0 52 177.617" xml:space="preserve">
<rect x="24.592" y="20.702" fill="#FFFFFF" width="2.826" height="111.646"/>
<path fill="#FFFFFF" d="M27.399,22.408h-1.502c-11.528,0-20.906-9.378-20.906-20.906V0h1.502c11.528,0,20.906,9.378,20.906,20.906
	V22.408z M8.063,3.072c0.753,8.621,7.643,15.511,16.264,16.264C23.574,10.715,16.685,3.825,8.063,3.072z"/>
<path fill="#FFFFFF" d="M26.102,22.408H24.6v-1.502C24.6,9.378,33.979,0,45.507,0h1.502v1.502
	C47.009,13.03,37.63,22.408,26.102,22.408z M43.937,3.072c-8.622,0.753-15.512,7.643-16.265,16.264
	C36.294,18.583,43.184,11.693,43.937,3.072z"/>
<path fill="#FFFFFF" d="M29.171,73.537c-0.965,0-1.938-0.096-2.893-0.282l-1.475-0.29l0.29-1.475
	c1.371-6.979,7.521-12.046,14.621-12.046c0.964,0,1.937,0.095,2.89,0.281l1.475,0.29l-0.289,1.474
	C42.421,68.47,36.272,73.537,29.171,73.537z M28.459,70.511c5.374,0.343,10.266-3.065,11.966-8.041
	C35.035,62.154,30.16,65.537,28.459,70.511z"/>
<path fill="#FFFFFF" d="M21.552,60.056C21.552,60.056,21.552,60.056,21.552,60.056c-7.1-0.001-13.247-5.066-14.618-12.044
	l-0.29-1.475l1.475-0.29c0.955-0.188,1.929-0.282,2.894-0.282c7.101,0,13.247,5.065,14.616,12.045l0.289,1.474l-1.475,0.29
	C23.488,59.96,22.516,60.056,21.552,60.056z M10.299,48.991c1.626,4.753,6.129,8.06,11.252,8.06c0.001,0,0.001,0,0.001,0
	c0.236,0,0.474-0.007,0.711-0.021C20.563,52.057,15.698,48.671,10.299,48.991z"/>
<path fill="#FFFFFF" d="M29.174,99.68c-0.966,0-1.94-0.095-2.896-0.283l-1.474-0.289l0.29-1.475
	c1.371-6.978,7.52-12.042,14.618-12.042c0.965,0,1.938,0.095,2.894,0.283l1.474,0.289l-0.289,1.474
	C42.421,94.615,36.273,99.68,29.174,99.68z M28.459,96.653c5.364,0.326,10.266-3.063,11.966-8.036
	C35.034,88.28,30.16,91.681,28.459,96.653z"/>
<path fill="#FFFFFF" d="M21.552,86.201C21.552,86.201,21.552,86.201,21.552,86.201c-7.1-0.001-13.247-5.066-14.618-12.044
	l-0.29-1.475l1.474-0.289c0.956-0.188,1.93-0.283,2.896-0.283c7.1,0,13.246,5.065,14.615,12.045l0.289,1.474l-1.475,0.29
	C23.488,86.105,22.516,86.201,21.552,86.201z M10.299,75.137c1.626,4.753,6.129,8.06,11.252,8.06c0.001,0,0.001,0,0.001,0
	c0.236,0,0.474-0.007,0.711-0.021C20.563,78.202,15.698,74.815,10.299,75.137z"/>
<path fill="#FFFFFF" d="M6.493,42.425H4.991v-1.502c0-11.526,9.378-20.903,20.906-20.903h1.502v1.502
	C27.399,33.048,18.021,42.425,6.493,42.425z M24.327,23.092c-8.621,0.753-15.511,7.641-16.264,16.261
	C16.685,38.6,23.574,31.712,24.327,23.092z"/>
<path fill="#FFFFFF" d="M47.009,42.425h-1.502c-11.528,0-20.907-9.377-20.907-20.903V20.02h1.502
	c11.528,0,20.907,9.377,20.907,20.903V42.425z M27.672,23.092c0.753,8.62,7.643,15.508,16.265,16.261
	C43.184,30.732,36.294,23.845,27.672,23.092z"/>
<path fill="#FFFFFF" d="M1.01,134.217c0.449-0.436,1.059-0.546,1.734-0.546c1.375,0,2.49,1.197,2.49,2.573
	c0,1.375-1.115,2.531-2.49,2.531c-0.266,0-0.516-0.032-0.756-0.108l1.785,7.565c0.859,0.393,1.461,1.262,1.461,2.27
	c0,0.592-0.215,1.131-0.561,1.557l4.846,20.518c0.299-0.127,0.629-0.197,0.977-0.197c1.375,0,2.49,1.115,2.49,2.49
	c0,1.326-1.037,2.075-2.342,2.155l0.689,2.593h29.332l0.688-2.593c-1.303-0.08-2.342-0.991-2.342-2.317
	c0-1.375,1.117-2.409,2.492-2.409c0.346,0,0.676,0.111,0.977,0.24l4.844-20.496c-0.344-0.427-0.561-0.954-0.561-1.546
	c0-1.008,0.602-1.865,1.463-2.258l1.783-7.555c-0.238,0.076-0.488,0.131-0.754,0.131c-1.375,0-2.492-1.115-2.492-2.49
	c0-1.376,1.117-2.492,2.492-2.492c0.674,0,1.285-0.051,1.734,0.385l1.01-4.6H0L1.01,134.217z M41.504,133.832
	c1.375,0,2.492,1.117,2.492,2.492s-1.117,2.492-2.492,2.492s-2.492-1.117-2.492-2.492S40.129,133.832,41.504,133.832z
	 M41.504,146.014c1.375,0,2.492,1.117,2.492,2.492c0,1.377-1.117,2.492-2.492,2.492s-2.492-1.115-2.492-2.492
	C39.012,147.131,40.129,146.014,41.504,146.014z M41.504,158.197c1.375,0,2.492,1.115,2.492,2.49c0,1.377-1.117,2.492-2.492,2.492
	s-2.492-1.115-2.492-2.492C39.012,159.313,40.129,158.197,41.504,158.197z M33.752,133.832c1.375,0,2.492,1.117,2.492,2.492
	s-1.117,2.492-2.492,2.492s-2.492-1.117-2.492-2.492S32.377,133.832,33.752,133.832z M33.752,146.014
	c1.375,0,2.492,1.117,2.492,2.492c0,1.377-1.117,2.492-2.492,2.492s-2.492-1.115-2.492-2.492
	C31.26,147.131,32.377,146.014,33.752,146.014z M33.752,158.197c1.375,0,2.492,1.115,2.492,2.49c0,1.377-1.117,2.492-2.492,2.492
	s-2.492-1.115-2.492-2.492C31.26,159.313,32.377,158.197,33.752,158.197z M33.752,170.379c1.375,0,2.492,1.115,2.492,2.49
	c0,1.377-1.117,2.492-2.492,2.492s-2.492-1.115-2.492-2.492C31.26,171.494,32.377,170.379,33.752,170.379z M26,133.832
	c1.375,0,2.492,1.117,2.492,2.492s-1.117,2.492-2.492,2.492c-1.377,0-2.492-1.117-2.492-2.492S24.623,133.832,26,133.832z
	 M26,146.014c1.375,0,2.492,1.117,2.492,2.492c0,1.377-1.117,2.492-2.492,2.492c-1.377,0-2.492-1.115-2.492-2.492
	C23.508,147.131,24.623,146.014,26,146.014z M26,158.197c1.375,0,2.492,1.115,2.492,2.49c0,1.377-1.117,2.492-2.492,2.492
	c-1.377,0-2.492-1.115-2.492-2.492C23.508,159.313,24.623,158.197,26,158.197z M26,170.379c1.375,0,2.492,1.115,2.492,2.49
	c0,1.377-1.117,2.492-2.492,2.492c-1.377,0-2.492-1.115-2.492-2.492C23.508,171.494,24.623,170.379,26,170.379z M18.248,133.832
	c1.375,0,2.492,1.117,2.492,2.492s-1.117,2.492-2.492,2.492c-1.377,0-2.492-1.117-2.492-2.492S16.871,133.832,18.248,133.832z
	 M18.248,146.014c1.375,0,2.492,1.117,2.492,2.492c0,1.377-1.117,2.492-2.492,2.492c-1.377,0-2.492-1.115-2.492-2.492
	C15.756,147.131,16.871,146.014,18.248,146.014z M18.248,158.197c1.375,0,2.492,1.115,2.492,2.49c0,1.377-1.117,2.492-2.492,2.492
	c-1.377,0-2.492-1.115-2.492-2.492C15.756,159.313,16.871,158.197,18.248,158.197z M18.248,170.379c1.375,0,2.492,1.115,2.492,2.49
	c0,1.377-1.117,2.492-2.492,2.492c-1.377,0-2.492-1.115-2.492-2.492C15.756,171.494,16.871,170.379,18.248,170.379z M10.496,133.832
	c1.375,0,2.49,1.117,2.49,2.492s-1.115,2.492-2.49,2.492c-1.377,0-2.492-1.117-2.492-2.492S9.119,133.832,10.496,133.832z
	 M10.496,146.014c1.375,0,2.49,1.117,2.49,2.492c0,1.377-1.115,2.492-2.49,2.492c-1.377,0-2.492-1.115-2.492-2.492
	C8.004,147.131,9.119,146.014,10.496,146.014z M10.496,158.197c1.375,0,2.49,1.115,2.49,2.49c0,1.377-1.115,2.492-2.49,2.492
	c-1.377,0-2.492-1.115-2.492-2.492C8.004,159.313,9.119,158.197,10.496,158.197z"/>
</svg>
