<?xml version="1.0" encoding="utf-8"?>
<!-- Generator: Adobe Illustrator 16.0.0, SVG Export Plug-In . SVG Version: 6.00 Build 0)  -->
<!DOCTYPE svg PUBLIC "-//W3C//DTD SVG 1.1//EN" "http://www.w3.org/Graphics/SVG/1.1/DTD/svg11.dtd">
<svg version="1.1" id="Layer_1" xmlns="http://www.w3.org/2000/svg" xmlns:xlink="http://www.w3.org/1999/xlink" x="0px" y="0px"
	 width="52px" height="131.652px" viewBox="0 0 52 131.652" enable-background="new 0 0 52 131.652" xml:space="preserve">
<rect x="24.592" y="9.875" fill="#FFFFFF" width="2.826" height="76.509"/>
<path fill="#FFFFFF" d="M29.171,27.572c-0.965,0-1.938-0.096-2.893-0.282L24.804,27l0.29-1.475
	c1.371-6.979,7.521-12.046,14.621-12.046c0.964,0,1.937,0.095,2.89,0.281l1.475,0.29l-0.289,1.474
	C42.421,22.505,36.272,27.572,29.171,27.572z M28.459,24.546c5.374,0.343,10.266-3.065,11.966-8.041
	C35.035,16.189,30.16,19.572,28.459,24.546z"/>
<path fill="#FFFFFF" d="M21.552,14.091C21.552,14.091,21.552,14.091,21.552,14.091C14.452,14.09,8.305,9.024,6.934,2.047
	l-0.29-1.475l1.475-0.29C9.073,0.095,10.047,0,11.012,0c7.101,0,13.247,5.065,14.616,12.045l0.289,1.474l-1.475,0.29
	C23.488,13.995,22.516,14.091,21.552,14.091z M10.299,3.026c1.626,4.753,6.129,8.06,11.252,8.06c0.001,0,0.001,0,0.001,0
	c0.236,0,0.474-0.007,0.711-0.021C20.563,6.092,15.698,2.706,10.299,3.026z"/>
<path fill="#FFFFFF" d="M29.174,53.715c-0.966,0-1.94-0.095-2.896-0.283l-1.474-0.289l0.29-1.475
	c1.371-6.978,7.52-12.042,14.618-12.042c0.965,0,1.938,0.095,2.894,0.283l1.474,0.289l-0.289,1.474
	C42.421,48.65,36.273,53.715,29.174,53.715z M28.459,50.688c5.364,0.326,10.266-3.063,11.966-8.036
	C35.034,42.315,30.16,45.716,28.459,50.688z"/>
<path fill="#FFFFFF" d="M21.552,40.236C21.552,40.236,21.552,40.236,21.552,40.236c-7.1-0.001-13.247-5.066-14.618-12.044
	l-0.29-1.475l1.474-0.289c0.956-0.188,1.93-0.283,2.896-0.283c7.1,0,13.246,5.065,14.615,12.045l0.289,1.474l-1.475,0.29
	C23.488,40.141,22.516,40.236,21.552,40.236z M10.299,29.172c1.626,4.753,6.129,8.06,11.252,8.06c0.001,0,0.001,0,0.001,0
	c0.236,0,0.474-0.007,0.711-0.021C20.563,32.237,15.698,28.851,10.299,29.172z"/>
<path fill="#FFFFFF" d="M1.01,88.252c0.449-0.436,1.059-0.546,1.734-0.546c1.375,0,2.49,1.197,2.49,2.573
	c0,1.375-1.115,2.531-2.49,2.531c-0.266,0-0.516-0.032-0.756-0.108l1.785,7.565c0.859,0.393,1.461,1.262,1.461,2.27
	c0,0.592-0.215,1.131-0.561,1.557l4.846,20.518c0.299-0.127,0.629-0.197,0.977-0.197c1.375,0,2.49,1.115,2.49,2.49
	c0,1.326-1.037,2.075-2.342,2.155l0.689,2.593h29.332l0.688-2.593c-1.303-0.08-2.342-0.991-2.342-2.317
	c0-1.375,1.117-2.409,2.492-2.409c0.346,0,0.676,0.111,0.977,0.24l4.844-20.496c-0.344-0.427-0.561-0.954-0.561-1.546
	c0-1.008,0.602-1.865,1.463-2.258l1.783-7.555c-0.238,0.076-0.488,0.131-0.754,0.131c-1.375,0-2.492-1.115-2.492-2.49
	c0-1.376,1.117-2.492,2.492-2.492c0.674,0,1.285-0.051,1.734,0.385l1.01-4.6H0L1.01,88.252z M41.504,87.867
	c1.375,0,2.492,1.117,2.492,2.492s-1.117,2.492-2.492,2.492s-2.492-1.117-2.492-2.492S40.129,87.867,41.504,87.867z M41.504,100.049
	c1.375,0,2.492,1.117,2.492,2.492c0,1.377-1.117,2.492-2.492,2.492s-2.492-1.115-2.492-2.492
	C39.012,101.166,40.129,100.049,41.504,100.049z M41.504,112.232c1.375,0,2.492,1.115,2.492,2.49c0,1.377-1.117,2.492-2.492,2.492
	s-2.492-1.115-2.492-2.492C39.012,113.348,40.129,112.232,41.504,112.232z M33.752,87.867c1.375,0,2.492,1.117,2.492,2.492
	s-1.117,2.492-2.492,2.492s-2.492-1.117-2.492-2.492S32.377,87.867,33.752,87.867z M33.752,100.049c1.375,0,2.492,1.117,2.492,2.492
	c0,1.377-1.117,2.492-2.492,2.492s-2.492-1.115-2.492-2.492C31.26,101.166,32.377,100.049,33.752,100.049z M33.752,112.232
	c1.375,0,2.492,1.115,2.492,2.49c0,1.377-1.117,2.492-2.492,2.492s-2.492-1.115-2.492-2.492
	C31.26,113.348,32.377,112.232,33.752,112.232z M33.752,124.414c1.375,0,2.492,1.115,2.492,2.49c0,1.377-1.117,2.492-2.492,2.492
	s-2.492-1.115-2.492-2.492C31.26,125.529,32.377,124.414,33.752,124.414z M26,87.867c1.375,0,2.492,1.117,2.492,2.492
	S27.375,92.852,26,92.852c-1.377,0-2.492-1.117-2.492-2.492S24.623,87.867,26,87.867z M26,100.049c1.375,0,2.492,1.117,2.492,2.492
	c0,1.377-1.117,2.492-2.492,2.492c-1.377,0-2.492-1.115-2.492-2.492C23.508,101.166,24.623,100.049,26,100.049z M26,112.232
	c1.375,0,2.492,1.115,2.492,2.49c0,1.377-1.117,2.492-2.492,2.492c-1.377,0-2.492-1.115-2.492-2.492
	C23.508,113.348,24.623,112.232,26,112.232z M26,124.414c1.375,0,2.492,1.115,2.492,2.49c0,1.377-1.117,2.492-2.492,2.492
	c-1.377,0-2.492-1.115-2.492-2.492C23.508,125.529,24.623,124.414,26,124.414z M18.248,87.867c1.375,0,2.492,1.117,2.492,2.492
	s-1.117,2.492-2.492,2.492c-1.377,0-2.492-1.117-2.492-2.492S16.871,87.867,18.248,87.867z M18.248,100.049
	c1.375,0,2.492,1.117,2.492,2.492c0,1.377-1.117,2.492-2.492,2.492c-1.377,0-2.492-1.115-2.492-2.492
	C15.756,101.166,16.871,100.049,18.248,100.049z M18.248,112.232c1.375,0,2.492,1.115,2.492,2.49c0,1.377-1.117,2.492-2.492,2.492
	c-1.377,0-2.492-1.115-2.492-2.492C15.756,113.348,16.871,112.232,18.248,112.232z M18.248,124.414c1.375,0,2.492,1.115,2.492,2.49
	c0,1.377-1.117,2.492-2.492,2.492c-1.377,0-2.492-1.115-2.492-2.492C15.756,125.529,16.871,124.414,18.248,124.414z M10.496,87.867
	c1.375,0,2.49,1.117,2.49,2.492s-1.115,2.492-2.49,2.492c-1.377,0-2.492-1.117-2.492-2.492S9.119,87.867,10.496,87.867z
	 M10.496,100.049c1.375,0,2.49,1.117,2.49,2.492c0,1.377-1.115,2.492-2.49,2.492c-1.377,0-2.492-1.115-2.492-2.492
	C8.004,101.166,9.119,100.049,10.496,100.049z M10.496,112.232c1.375,0,2.49,1.115,2.49,2.49c0,1.377-1.115,2.492-2.49,2.492
	c-1.377,0-2.492-1.115-2.492-2.492C8.004,113.348,9.119,112.232,10.496,112.232z"/>
</svg>
