<?xml version="1.0" encoding="utf-8"?>
<!-- Generator: Adobe Illustrator 16.0.0, SVG Export Plug-In . SVG Version: 6.00 Build 0)  -->
<!DOCTYPE svg PUBLIC "-//W3C//DTD SVG 1.1//EN" "http://www.w3.org/Graphics/SVG/1.1/DTD/svg11.dtd">
<svg version="1.1" id="Layer_1" xmlns="http://www.w3.org/2000/svg" xmlns:xlink="http://www.w3.org/1999/xlink" x="0px" y="0px"
	 width="16px" height="32.448px" viewBox="0 0 16 32.448" enable-background="new 0 0 16 32.448" xml:space="preserve">
<path fill="#FFFFFF" d="M15.156,19.379c0.207,0,0.395,0.168,0.533,0.302L16,18.448H7.75V8.344L8.087,8.41
	c0.294,0.058,0.594,0.087,0.892,0.087c2.188,0,4.083-1.561,4.504-3.712l0.089-0.454l-0.454-0.089
	c-0.294-0.058-0.594-0.087-0.892-0.087c-2.153,0-4.017,1.515-4.476,3.614V4.211l0.225-0.044l-0.09-0.454
	C7.463,1.562,5.568,0,3.381,0C3.083,0,2.783,0.029,2.489,0.087L2.035,0.176L2.124,0.63C2.545,2.781,4.44,4.343,6.63,4.343
	c0.04,0,0.08-0.011,0.12-0.012v14.117H0l0.311,1.232c0.139-0.134,0.326-0.26,0.533-0.26c0.424,0,0.767,0.322,0.767,0.746
	s-0.343,0.756-0.767,0.756c-0.081,0-0.158-0.021-0.232-0.045l0.55,2.322c0.265,0.121,0.449,0.385,0.449,0.695
	c0,0.182-0.065,0.347-0.173,0.478l1.492,6.313c0.092-0.039,0.193-0.062,0.3-0.062c0.423,0,0.767,0.343,0.767,0.766
	c0,0.408-0.319,0.438-0.721,0.462l0.212,0.597h9.025l0.212-0.597c-0.401-0.024-0.721-0.204-0.721-0.612
	c0-0.423,0.344-0.69,0.767-0.69c0.106,0,0.208,0.06,0.3,0.099l1.491-6.293c-0.106-0.132-0.173-0.288-0.173-0.471
	c0-0.31,0.186-0.57,0.45-0.691l0.549-2.322c-0.073,0.023-0.15,0.041-0.231,0.041c-0.424,0-0.768-0.343-0.768-0.766
	C14.389,19.722,14.732,19.379,15.156,19.379z M12.445,5.088c-0.522,1.533-2.036,2.589-3.687,2.477
	C9.282,6.031,10.783,4.988,12.445,5.088z M6.63,3.417c-1.58,0-2.969-1.02-3.469-2.484C4.83,0.836,6.323,1.878,6.848,3.41
	C6.775,3.415,6.702,3.417,6.63,3.417z M3.229,28.409c-0.424,0-0.767-0.344-0.767-0.768c0-0.423,0.343-0.766,0.767-0.766
	c0.423,0,0.767,0.343,0.767,0.766C3.996,28.065,3.652,28.409,3.229,28.409z M3.229,24.66c-0.424,0-0.767-0.343-0.767-0.767
	c0-0.423,0.343-0.767,0.767-0.767c0.423,0,0.767,0.344,0.767,0.767C3.996,24.317,3.652,24.66,3.229,24.66z M3.229,20.912
	c-0.424,0-0.767-0.344-0.767-0.767s0.343-0.767,0.767-0.767c0.423,0,0.767,0.344,0.767,0.767S3.652,20.912,3.229,20.912z
	 M5.615,32.157c-0.424,0-0.768-0.344-0.768-0.768c0-0.423,0.344-0.766,0.768-0.766c0.423,0,0.767,0.343,0.767,0.766
	C6.382,31.813,6.038,32.157,5.615,32.157z M5.615,28.409c-0.424,0-0.768-0.344-0.768-0.768c0-0.423,0.344-0.766,0.768-0.766
	c0.423,0,0.767,0.343,0.767,0.766C6.382,28.065,6.038,28.409,5.615,28.409z M5.615,24.66c-0.424,0-0.768-0.343-0.768-0.767
	c0-0.423,0.344-0.767,0.768-0.767c0.423,0,0.767,0.344,0.767,0.767C6.382,24.317,6.038,24.66,5.615,24.66z M5.615,20.912
	c-0.424,0-0.768-0.344-0.768-0.767s0.344-0.767,0.768-0.767c0.423,0,0.767,0.344,0.767,0.767S6.038,20.912,5.615,20.912z M8,32.157
	c-0.424,0-0.767-0.344-0.767-0.768c0-0.423,0.343-0.766,0.767-0.766c0.423,0,0.767,0.343,0.767,0.766
	C8.767,31.813,8.423,32.157,8,32.157z M8,28.409c-0.424,0-0.767-0.344-0.767-0.768c0-0.423,0.343-0.766,0.767-0.766
	c0.423,0,0.767,0.343,0.767,0.766C8.767,28.065,8.423,28.409,8,28.409z M8,24.66c-0.424,0-0.767-0.343-0.767-0.767
	c0-0.423,0.343-0.767,0.767-0.767c0.423,0,0.767,0.344,0.767,0.767C8.767,24.317,8.423,24.66,8,24.66z M8,20.912
	c-0.424,0-0.767-0.344-0.767-0.767S7.576,19.379,8,19.379c0.423,0,0.767,0.344,0.767,0.767S8.423,20.912,8,20.912z M10.385,32.157
	c-0.423,0-0.767-0.344-0.767-0.768c0-0.423,0.344-0.766,0.767-0.766c0.424,0,0.768,0.343,0.768,0.766
	C11.152,31.813,10.809,32.157,10.385,32.157z M10.385,28.409c-0.423,0-0.767-0.344-0.767-0.768c0-0.423,0.344-0.766,0.767-0.766
	c0.424,0,0.768,0.343,0.768,0.766C11.152,28.065,10.809,28.409,10.385,28.409z M10.385,24.66c-0.423,0-0.767-0.343-0.767-0.767
	c0-0.423,0.344-0.767,0.767-0.767c0.424,0,0.768,0.344,0.768,0.767C11.152,24.317,10.809,24.66,10.385,24.66z M10.385,20.912
	c-0.423,0-0.767-0.344-0.767-0.767s0.344-0.767,0.767-0.767c0.424,0,0.768,0.344,0.768,0.767S10.809,20.912,10.385,20.912z
	 M12.771,28.409c-0.423,0-0.767-0.344-0.767-0.768c0-0.423,0.344-0.766,0.767-0.766s0.767,0.343,0.767,0.766
	C13.537,28.065,13.193,28.409,12.771,28.409z M12.771,24.66c-0.423,0-0.767-0.343-0.767-0.767c0-0.423,0.344-0.767,0.767-0.767
	s0.767,0.344,0.767,0.767C13.537,24.317,13.193,24.66,12.771,24.66z M12.771,20.912c-0.423,0-0.767-0.344-0.767-0.767
	s0.344-0.767,0.767-0.767s0.767,0.344,0.767,0.767S13.193,20.912,12.771,20.912z"/>
</svg>
