<?xml version="1.0" encoding="utf-8"?>
<!-- Generator: Adobe Illustrator 16.0.0, SVG Export Plug-In . SVG Version: 6.00 Build 0)  -->
<!DOCTYPE svg PUBLIC "-//W3C//DTD SVG 1.1//EN" "http://www.w3.org/Graphics/SVG/1.1/DTD/svg11.dtd">
<svg version="1.1" id="Layer_1" xmlns="http://www.w3.org/2000/svg" xmlns:xlink="http://www.w3.org/1999/xlink" x="0px" y="0px"
	 width="15.666px" height="39.249px" viewBox="0 0 15.666 39.249" enable-background="new 0 0 15.666 39.249" xml:space="preserve">
<path fill="#FFFFFF" d="M11.514,24.5V3.681C11.514,1.651,9.863,0,7.834,0c-2.03,0-3.682,1.651-3.682,3.681V24.5
	C1.609,25.852,0,28.498,0,31.416c0,4.319,3.515,7.833,7.834,7.833c4.318,0,7.832-3.514,7.832-7.833
	C15.666,28.498,14.057,25.852,11.514,24.5z M7.834,37.249C4.617,37.249,2,34.633,2,31.416c0-2.342,1.392-4.448,3.545-5.366
	c0.368-0.157,0.607-0.52,0.607-0.92v-4.635h1.311v-1H6.152v-2h1.311v-1H6.152v-2h1.311v-1H6.152v-2h1.311v-1H6.152V3.681
	C6.152,2.754,6.906,2,7.834,2c0.926,0,1.68,0.754,1.68,1.681V25.13c0,0.4,0.239,0.763,0.607,0.92
	c2.153,0.918,3.545,3.024,3.545,5.366C13.666,34.633,11.05,37.249,7.834,37.249z"/>
</svg>
