<?xml version="1.0" encoding="utf-8"?>
<!-- Generator: Adobe Illustrator 16.0.0, SVG Export Plug-In . SVG Version: 6.00 Build 0)  -->
<!DOCTYPE svg PUBLIC "-//W3C//DTD SVG 1.1//EN" "http://www.w3.org/Graphics/SVG/1.1/DTD/svg11.dtd">
<svg version="1.1" id="Layer_1" xmlns="http://www.w3.org/2000/svg" xmlns:xlink="http://www.w3.org/1999/xlink" x="0px" y="0px"
	 width="550px" height="54.674px" viewBox="0 0 550 54.674" enable-background="new 0 0 550 54.674" xml:space="preserve">
<path fill="#FFFFFF" d="M549.156,41.604c0.207,0,0.395,0.168,0.533,0.302L550,40.674h-7.458v-9.993
	c0.146,0.014,0.29,0.042,0.437,0.042c2.188,0,4.083-1.561,4.504-3.712l0.089-0.454l-0.454-0.089
	c-0.294-0.058-0.594-0.087-0.892-0.087c-1.495,0-2.839,0.738-3.684,1.885v-5.644c0.146,0.015,0.29,0.043,0.436,0.043
	c2.188,0,4.084-1.562,4.505-3.713l0.089-0.454l-0.454-0.089c-0.294-0.058-0.594-0.087-0.892-0.087c-1.495,0-2.839,0.738-3.684,1.886
	V10.021c1.138,1.83,3.161,3.055,5.47,3.055h0.463v-0.463c0-2.807-1.807-5.194-4.316-6.075c2.51-0.881,4.316-3.269,4.316-6.075V0
	h-0.463c-2.742,0-5.083,1.725-6.012,4.144C541.071,1.725,538.73,0,535.988,0h-0.463v0.463c0,2.807,1.807,5.194,4.316,6.075
	c-2.51,0.881-4.316,3.269-4.316,6.075v0.463h0.463c2.366,0,4.434-1.286,5.554-3.192v6.979c-0.733-1.604-2.339-2.695-4.16-2.695
	c-0.298,0-0.599,0.029-0.894,0.088l-0.453,0.089l0.089,0.454c0.422,2.151,2.316,3.712,4.506,3.712c0.297,0,0.596-0.029,0.89-0.087
	l0.022-0.004v6.502c-0.733-1.604-2.339-2.695-4.161-2.695c-0.298,0-0.598,0.029-0.892,0.087l-0.454,0.089l0.089,0.454
	c0.421,2.151,2.316,3.713,4.506,3.713c0.297,0,0.596-0.029,0.89-0.087l0.022-0.004v14.196H534l0.311,1.232
	c0.139-0.134,0.326-0.26,0.533-0.26c0.424,0,0.767,0.322,0.767,0.746s-0.343,0.756-0.767,0.756c-0.081,0-0.158-0.021-0.232-0.045
	l0.55,2.322c0.265,0.121,0.449,0.385,0.449,0.695c0,0.182-0.065,0.347-0.173,0.478l1.492,6.313c0.092-0.039,0.193-0.062,0.3-0.062
	c0.423,0,0.767,0.343,0.767,0.766c0,0.408-0.319,0.438-0.721,0.462l0.212,0.597h9.025l0.212-0.597
	c-0.401-0.024-0.721-0.204-0.721-0.612c0-0.423,0.344-0.69,0.767-0.69c0.106,0,0.208,0.06,0.3,0.099l1.491-6.293
	c-0.106-0.132-0.173-0.288-0.173-0.471c0-0.31,0.186-0.57,0.45-0.691l0.549-2.322c-0.073,0.023-0.15,0.041-0.231,0.041
	c-0.424,0-0.768-0.343-0.768-0.766C548.389,41.947,548.732,41.604,549.156,41.604z M546.445,27.313
	c-0.523,1.533-2.043,2.589-3.687,2.477C543.282,28.257,544.799,27.214,546.445,27.313z M546.445,19.255
	c-0.522,1.532-2.056,2.589-3.687,2.478C543.282,20.2,544.799,19.15,546.445,19.255z M536.473,12.129
	c0.231-2.657,2.354-4.78,5.012-5.012C541.253,9.774,539.13,11.897,536.473,12.129z M536.473,0.947
	c2.657,0.231,4.78,2.354,5.012,5.012C538.827,5.728,536.704,3.604,536.473,0.947z M540.63,17.584c-1.58,0-2.969-1.02-3.469-2.484
	c1.655-0.075,3.163,0.945,3.687,2.478C540.775,17.582,540.702,17.584,540.63,17.584z M540.63,25.643c-1.58,0-2.969-1.02-3.469-2.484
	c1.655-0.097,3.163,0.945,3.687,2.478C540.775,25.641,540.702,25.643,540.63,25.643z M547.527,12.129
	c-2.606-0.228-4.688-2.278-4.985-4.864V7.122C545.187,7.365,547.297,9.48,547.527,12.129z M547.527,0.947
	c-0.231,2.657-2.354,4.78-5.012,5.012C542.747,3.302,544.87,1.179,547.527,0.947z M537.229,50.635c-0.424,0-0.767-0.344-0.767-0.768
	c0-0.423,0.343-0.766,0.767-0.766c0.423,0,0.767,0.343,0.767,0.766C537.996,50.291,537.652,50.635,537.229,50.635z M537.229,46.886
	c-0.424,0-0.767-0.343-0.767-0.767c0-0.423,0.343-0.767,0.767-0.767c0.423,0,0.767,0.344,0.767,0.767
	C537.996,46.543,537.652,46.886,537.229,46.886z M537.229,43.138c-0.424,0-0.767-0.344-0.767-0.767s0.343-0.767,0.767-0.767
	c0.423,0,0.767,0.344,0.767,0.767S537.652,43.138,537.229,43.138z M539.615,54.383c-0.424,0-0.768-0.344-0.768-0.768
	c0-0.423,0.344-0.766,0.768-0.766c0.423,0,0.767,0.343,0.767,0.766C540.382,54.039,540.038,54.383,539.615,54.383z M539.615,50.635
	c-0.424,0-0.768-0.344-0.768-0.768c0-0.423,0.344-0.766,0.768-0.766c0.423,0,0.767,0.343,0.767,0.766
	C540.382,50.291,540.038,50.635,539.615,50.635z M539.615,46.886c-0.424,0-0.768-0.343-0.768-0.767c0-0.423,0.344-0.767,0.768-0.767
	c0.423,0,0.767,0.344,0.767,0.767C540.382,46.543,540.038,46.886,539.615,46.886z M539.615,43.138c-0.424,0-0.768-0.344-0.768-0.767
	s0.344-0.767,0.768-0.767c0.423,0,0.767,0.344,0.767,0.767S540.038,43.138,539.615,43.138z M542,54.383
	c-0.424,0-0.767-0.344-0.767-0.768c0-0.423,0.343-0.766,0.767-0.766c0.423,0,0.767,0.343,0.767,0.766
	C542.767,54.039,542.423,54.383,542,54.383z M542,50.635c-0.424,0-0.767-0.344-0.767-0.768c0-0.423,0.343-0.766,0.767-0.766
	c0.423,0,0.767,0.343,0.767,0.766C542.767,50.291,542.423,50.635,542,50.635z M542,46.886c-0.424,0-0.767-0.343-0.767-0.767
	c0-0.423,0.343-0.767,0.767-0.767c0.423,0,0.767,0.344,0.767,0.767C542.767,46.543,542.423,46.886,542,46.886z M542,43.138
	c-0.424,0-0.767-0.344-0.767-0.767s0.343-0.767,0.767-0.767c0.423,0,0.767,0.344,0.767,0.767S542.423,43.138,542,43.138z
	 M544.385,54.383c-0.423,0-0.767-0.344-0.767-0.768c0-0.423,0.344-0.766,0.767-0.766c0.424,0,0.768,0.343,0.768,0.766
	C545.152,54.039,544.809,54.383,544.385,54.383z M544.385,50.635c-0.423,0-0.767-0.344-0.767-0.768c0-0.423,0.344-0.766,0.767-0.766
	c0.424,0,0.768,0.343,0.768,0.766C545.152,50.291,544.809,50.635,544.385,50.635z M544.385,46.886c-0.423,0-0.767-0.343-0.767-0.767
	c0-0.423,0.344-0.767,0.767-0.767c0.424,0,0.768,0.344,0.768,0.767C545.152,46.543,544.809,46.886,544.385,46.886z M544.385,43.138
	c-0.423,0-0.767-0.344-0.767-0.767s0.344-0.767,0.767-0.767c0.424,0,0.768,0.344,0.768,0.767S544.809,43.138,544.385,43.138z
	 M546.771,50.635c-0.423,0-0.767-0.344-0.767-0.768c0-0.423,0.344-0.766,0.767-0.766s0.767,0.343,0.767,0.766
	C547.537,50.291,547.193,50.635,546.771,50.635z M546.771,46.886c-0.423,0-0.767-0.343-0.767-0.767c0-0.423,0.344-0.767,0.767-0.767
	s0.767,0.344,0.767,0.767C547.537,46.543,547.193,46.886,546.771,46.886z M546.771,43.138c-0.423,0-0.767-0.344-0.767-0.767
	s0.344-0.767,0.767-0.767s0.767,0.344,0.767,0.767S547.193,43.138,546.771,43.138z"/>
<path fill="#FFFFFF" d="M15.156,41.604c0.207,0,0.395,0.168,0.533,0.302L16,40.674H7.75V30.569l0.337,0.066
	c0.294,0.058,0.594,0.087,0.892,0.087c2.188,0,4.083-1.561,4.504-3.712l0.089-0.454l-0.454-0.089
	c-0.294-0.058-0.594-0.087-0.892-0.087c-2.153,0-4.017,1.515-4.476,3.614v-3.559l0.225-0.044l-0.09-0.454
	c-0.422-2.151-2.316-3.713-4.504-3.713c-0.298,0-0.598,0.029-0.892,0.087l-0.454,0.089l0.089,0.454
	c0.421,2.151,2.316,3.713,4.506,3.713c0.04,0,0.08-0.011,0.12-0.012v14.117H0l0.311,1.232c0.139-0.134,0.326-0.26,0.533-0.26
	c0.424,0,0.767,0.322,0.767,0.746s-0.343,0.756-0.767,0.756c-0.081,0-0.158-0.021-0.232-0.045l0.55,2.322
	c0.265,0.121,0.449,0.385,0.449,0.695c0,0.182-0.065,0.347-0.173,0.478l1.492,6.313c0.092-0.039,0.193-0.062,0.3-0.062
	c0.423,0,0.767,0.343,0.767,0.766c0,0.408-0.319,0.438-0.721,0.462l0.212,0.597h9.025l0.212-0.597
	c-0.401-0.024-0.721-0.204-0.721-0.612c0-0.423,0.344-0.69,0.767-0.69c0.106,0,0.208,0.06,0.3,0.099l1.491-6.293
	c-0.106-0.132-0.173-0.288-0.173-0.471c0-0.31,0.186-0.57,0.45-0.691l0.549-2.322c-0.073,0.023-0.15,0.041-0.231,0.041
	c-0.424,0-0.768-0.343-0.768-0.766C14.389,41.947,14.732,41.604,15.156,41.604z M12.445,27.313
	c-0.522,1.533-2.036,2.589-3.687,2.477C9.282,28.257,10.783,27.214,12.445,27.313z M6.63,25.643c-1.58,0-2.969-1.02-3.469-2.484
	c1.669-0.097,3.162,0.945,3.687,2.478C6.775,25.641,6.702,25.643,6.63,25.643z M3.229,50.635c-0.424,0-0.767-0.344-0.767-0.768
	c0-0.423,0.343-0.766,0.767-0.766c0.423,0,0.767,0.343,0.767,0.766C3.996,50.291,3.652,50.635,3.229,50.635z M3.229,46.886
	c-0.424,0-0.767-0.343-0.767-0.767c0-0.423,0.343-0.767,0.767-0.767c0.423,0,0.767,0.344,0.767,0.767
	C3.996,46.543,3.652,46.886,3.229,46.886z M3.229,43.138c-0.424,0-0.767-0.344-0.767-0.767s0.343-0.767,0.767-0.767
	c0.423,0,0.767,0.344,0.767,0.767S3.652,43.138,3.229,43.138z M5.615,54.383c-0.424,0-0.768-0.344-0.768-0.768
	c0-0.423,0.344-0.766,0.768-0.766c0.423,0,0.767,0.343,0.767,0.766C6.382,54.039,6.038,54.383,5.615,54.383z M5.615,50.635
	c-0.424,0-0.768-0.344-0.768-0.768c0-0.423,0.344-0.766,0.768-0.766c0.423,0,0.767,0.343,0.767,0.766
	C6.382,50.291,6.038,50.635,5.615,50.635z M5.615,46.886c-0.424,0-0.768-0.343-0.768-0.767c0-0.423,0.344-0.767,0.768-0.767
	c0.423,0,0.767,0.344,0.767,0.767C6.382,46.543,6.038,46.886,5.615,46.886z M5.615,43.138c-0.424,0-0.768-0.344-0.768-0.767
	s0.344-0.767,0.768-0.767c0.423,0,0.767,0.344,0.767,0.767S6.038,43.138,5.615,43.138z M8,54.383c-0.424,0-0.767-0.344-0.767-0.768
	c0-0.423,0.343-0.766,0.767-0.766c0.423,0,0.767,0.343,0.767,0.766C8.767,54.039,8.423,54.383,8,54.383z M8,50.635
	c-0.424,0-0.767-0.344-0.767-0.768c0-0.423,0.343-0.766,0.767-0.766c0.423,0,0.767,0.343,0.767,0.766
	C8.767,50.291,8.423,50.635,8,50.635z M8,46.886c-0.424,0-0.767-0.343-0.767-0.767c0-0.423,0.343-0.767,0.767-0.767
	c0.423,0,0.767,0.344,0.767,0.767C8.767,46.543,8.423,46.886,8,46.886z M8,43.138c-0.424,0-0.767-0.344-0.767-0.767
	S7.576,41.604,8,41.604c0.423,0,0.767,0.344,0.767,0.767S8.423,43.138,8,43.138z M10.385,54.383c-0.423,0-0.767-0.344-0.767-0.768
	c0-0.423,0.344-0.766,0.767-0.766c0.424,0,0.768,0.343,0.768,0.766C11.152,54.039,10.809,54.383,10.385,54.383z M10.385,50.635
	c-0.423,0-0.767-0.344-0.767-0.768c0-0.423,0.344-0.766,0.767-0.766c0.424,0,0.768,0.343,0.768,0.766
	C11.152,50.291,10.809,50.635,10.385,50.635z M10.385,46.886c-0.423,0-0.767-0.343-0.767-0.767c0-0.423,0.344-0.767,0.767-0.767
	c0.424,0,0.768,0.344,0.768,0.767C11.152,46.543,10.809,46.886,10.385,46.886z M10.385,43.138c-0.423,0-0.767-0.344-0.767-0.767
	s0.344-0.767,0.767-0.767c0.424,0,0.768,0.344,0.768,0.767S10.809,43.138,10.385,43.138z M12.771,50.635
	c-0.423,0-0.767-0.344-0.767-0.768c0-0.423,0.344-0.766,0.767-0.766s0.767,0.343,0.767,0.766
	C13.537,50.291,13.193,50.635,12.771,50.635z M12.771,46.886c-0.423,0-0.767-0.343-0.767-0.767c0-0.423,0.344-0.767,0.767-0.767
	s0.767,0.344,0.767,0.767C13.537,46.543,13.193,46.886,12.771,46.886z M12.771,43.138c-0.423,0-0.767-0.344-0.767-0.767
	s0.344-0.767,0.767-0.767s0.767,0.344,0.767,0.767S13.193,43.138,12.771,43.138z"/>
<path fill="#FFFFFF" d="M112.75,42.674h-90c-0.553,0-1-0.447-1-1s0.447-1,1-1h90c0.553,0,1,0.447,1,1S113.303,42.674,112.75,42.674z
	"/>
<path fill="#FFFFFF" d="M526.188,42.674h-90c-0.553,0-1-0.447-1-1s0.447-1,1-1h90c0.553,0,1,0.447,1,1S526.74,42.674,526.188,42.674
	z"/>
<circle fill="none" stroke="#FFFFFF" stroke-width="1.5887" stroke-linecap="round" stroke-linejoin="round" stroke-miterlimit="10" cx="119.658" cy="42.007" r="6.334"/>
<path fill="#FFFFFF" d="M216.354,42.674h-90c-0.553,0-1-0.447-1-1s0.447-1,1-1h90c0.553,0,1,0.447,1,1
	S216.907,42.674,216.354,42.674z"/>
<circle fill="none" stroke="#FFFFFF" stroke-width="1.5887" stroke-linecap="round" stroke-linejoin="round" stroke-miterlimit="10" cx="222.926" cy="42.007" r="6.334"/>
<path fill="#FFFFFF" d="M319.584,42.674h-90c-0.553,0-1-0.447-1-1s0.447-1,1-1h90c0.553,0,1,0.447,1,1
	S320.137,42.674,319.584,42.674z"/>
<circle fill="none" stroke="#FFFFFF" stroke-width="1.5887" stroke-linecap="round" stroke-linejoin="round" stroke-miterlimit="10" cx="326.193" cy="42.007" r="6.334"/>
<path fill="#FFFFFF" d="M422.75,42.674h-90c-0.553,0-1-0.447-1-1s0.447-1,1-1h90c0.553,0,1,0.447,1,1S423.303,42.674,422.75,42.674z
	"/>
<path fill="#FFFFFF" d="M429.46,49.167c-3.948,0-7.16-3.212-7.16-7.16s3.212-7.16,7.16-7.16s7.16,3.212,7.16,7.16
	S433.408,49.167,429.46,49.167z M429.46,36.499c-3.037,0-5.508,2.471-5.508,5.508s2.471,5.508,5.508,5.508s5.508-2.471,5.508-5.508
	S432.497,36.499,429.46,36.499z"/>
</svg>
