<?xml version="1.0" encoding="utf-8"?>
<!-- Generator: Adobe Illustrator 16.0.0, SVG Export Plug-In . SVG Version: 6.00 Build 0)  -->
<!DOCTYPE svg PUBLIC "-//W3C//DTD SVG 1.1//EN" "http://www.w3.org/Graphics/SVG/1.1/DTD/svg11.dtd">
<svg version="1.1" id="Layer_1" xmlns="http://www.w3.org/2000/svg" xmlns:xlink="http://www.w3.org/1999/xlink" x="0px" y="0px"
	 width="505.438px" height="14.32px" viewBox="0 0 505.438 14.32" enable-background="new 0 0 505.438 14.32" xml:space="preserve">
<path fill="#FFFFFF" d="M91,7.827H1c-0.553,0-1-0.447-1-1s0.447-1,1-1h90c0.553,0,1,0.447,1,1S91.553,7.827,91,7.827z"/>
<path fill="#FFFFFF" d="M504.438,7.827h-90c-0.553,0-1-0.447-1-1s0.447-1,1-1h90c0.553,0,1,0.447,1,1S504.99,7.827,504.438,7.827z"
	/>
<circle fill="none" stroke="#FFFFFF" stroke-width="1.5887" stroke-linecap="round" stroke-linejoin="round" stroke-miterlimit="10" cx="97.908" cy="7.16" r="6.334"/>
<path fill="#FFFFFF" d="M194.604,7.827h-90c-0.553,0-1-0.447-1-1s0.447-1,1-1h90c0.553,0,1,0.447,1,1S195.157,7.827,194.604,7.827z"
	/>
<circle fill="none" stroke="#FFFFFF" stroke-width="1.5887" stroke-linecap="round" stroke-linejoin="round" stroke-miterlimit="10" cx="201.176" cy="7.16" r="6.334"/>
<path fill="#FFFFFF" d="M297.834,7.827h-90c-0.553,0-1-0.447-1-1s0.447-1,1-1h90c0.553,0,1,0.447,1,1S298.387,7.827,297.834,7.827z"
	/>
<circle fill="none" stroke="#FFFFFF" stroke-width="1.5887" stroke-linecap="round" stroke-linejoin="round" stroke-miterlimit="10" cx="304.443" cy="7.16" r="6.334"/>
<path fill="#FFFFFF" d="M401,7.827h-90c-0.553,0-1-0.447-1-1s0.447-1,1-1h90c0.553,0,1,0.447,1,1S401.553,7.827,401,7.827z"/>
<path fill="#FFFFFF" d="M407.71,14.32c-3.948,0-7.16-3.212-7.16-7.16S403.762,0,407.71,0s7.16,3.212,7.16,7.16
	S411.658,14.32,407.71,14.32z M407.71,1.652c-3.037,0-5.508,2.471-5.508,5.508s2.471,5.508,5.508,5.508s5.508-2.471,5.508-5.508
	S410.747,1.652,407.71,1.652z"/>
</svg>
