<?xml version="1.0" encoding="utf-8"?>
<!-- Generator: Adobe Illustrator 16.0.0, SVG Export Plug-In . SVG Version: 6.00 Build 0)  -->
<!DOCTYPE svg PUBLIC "-//W3C//DTD SVG 1.1//EN" "http://www.w3.org/Graphics/SVG/1.1/DTD/svg11.dtd">
<svg version="1.1" id="Layer_1" xmlns="http://www.w3.org/2000/svg" xmlns:xlink="http://www.w3.org/1999/xlink" x="0px" y="0px"
	 width="550px" height="54.674px" viewBox="0 0 550 54.674" enable-background="new 0 0 550 54.674" xml:space="preserve">
<path fill="#FFFFFF" d="M549.441,41.506c0.207,0,0.395,0.168,0.533,0.302l0.311-1.232h-7.458v-9.993
	c0.146,0.014,0.29,0.042,0.437,0.042c2.188,0,4.083-1.561,4.504-3.712l0.089-0.454l-0.454-0.089
	c-0.294-0.058-0.594-0.087-0.892-0.087c-1.495,0-2.839,0.738-3.684,1.885v-5.644c0.146,0.015,0.29,0.043,0.436,0.043
	c2.188,0,4.084-1.562,4.505-3.713l0.089-0.454l-0.454-0.089c-0.294-0.058-0.594-0.087-0.892-0.087c-1.495,0-2.839,0.738-3.684,1.886
	V9.923c1.138,1.83,3.161,3.055,5.47,3.055h0.463v-0.463c0-2.807-1.807-5.194-4.316-6.075c2.51-0.881,4.316-3.269,4.316-6.075v-0.463
	h-0.463c-2.742,0-5.083,1.725-6.012,4.144c-0.929-2.419-3.27-4.144-6.012-4.144h-0.463v0.463c0,2.807,1.807,5.194,4.316,6.075
	c-2.51,0.881-4.316,3.269-4.316,6.075v0.463h0.463c2.366,0,4.434-1.286,5.554-3.192v6.979c-0.733-1.604-2.339-2.695-4.16-2.695
	c-0.298,0-0.599,0.029-0.894,0.088l-0.453,0.089l0.089,0.454c0.422,2.151,2.316,3.712,4.506,3.712c0.297,0,0.596-0.029,0.89-0.087
	l0.022-0.004v6.502c-0.733-1.604-2.339-2.695-4.161-2.695c-0.298,0-0.598,0.029-0.892,0.087l-0.454,0.089l0.089,0.454
	c0.421,2.151,2.316,3.713,4.506,3.713c0.297,0,0.596-0.029,0.89-0.087l0.022-0.004v14.196h-7.542l0.311,1.232
	c0.139-0.134,0.326-0.26,0.533-0.26c0.424,0,0.767,0.322,0.767,0.746s-0.343,0.756-0.767,0.756c-0.081,0-0.158-0.021-0.232-0.045
	l0.55,2.322c0.265,0.121,0.449,0.385,0.449,0.695c0,0.182-0.065,0.347-0.173,0.478l1.492,6.313c0.092-0.039,0.193-0.062,0.3-0.062
	c0.423,0,0.767,0.343,0.767,0.766c0,0.408-0.319,0.438-0.721,0.462l0.212,0.597h9.025l0.212-0.597
	c-0.401-0.024-0.721-0.204-0.721-0.612c0-0.423,0.344-0.69,0.767-0.69c0.106,0,0.208,0.06,0.3,0.099l1.491-6.293
	c-0.106-0.132-0.173-0.288-0.173-0.471c0-0.31,0.186-0.57,0.45-0.691l0.549-2.322c-0.073,0.023-0.15,0.041-0.231,0.041
	c-0.424,0-0.768-0.343-0.768-0.766C548.674,41.849,549.018,41.506,549.441,41.506z M546.73,27.215
	c-0.523,1.533-2.043,2.589-3.687,2.477C543.567,28.158,545.084,27.115,546.73,27.215z M546.73,19.156
	c-0.522,1.532-2.056,2.589-3.687,2.478C543.567,20.102,545.084,19.052,546.73,19.156z M536.758,12.03
	c0.231-2.657,2.354-4.78,5.012-5.012C541.538,9.676,539.415,11.799,536.758,12.03z M536.758,0.849
	c2.657,0.231,4.78,2.354,5.012,5.012C539.112,5.629,536.989,3.506,536.758,0.849z M540.915,17.485c-1.58,0-2.969-1.02-3.469-2.484
	c1.655-0.075,3.163,0.945,3.687,2.478C541.061,17.483,540.987,17.485,540.915,17.485z M540.915,25.544
	c-1.58,0-2.969-1.02-3.469-2.484c1.655-0.097,3.163,0.945,3.687,2.478C541.061,25.542,540.987,25.544,540.915,25.544z
	 M547.813,12.03c-2.606-0.228-4.688-2.278-4.985-4.864V7.023C545.472,7.267,547.582,9.382,547.813,12.03z M547.813,0.849
	c-0.231,2.657-2.354,4.78-5.012,5.012C543.032,3.203,545.155,1.08,547.813,0.849z M537.515,50.536c-0.424,0-0.767-0.344-0.767-0.768
	c0-0.423,0.343-0.766,0.767-0.766c0.423,0,0.767,0.343,0.767,0.766C538.281,50.192,537.938,50.536,537.515,50.536z M537.515,46.787
	c-0.424,0-0.767-0.343-0.767-0.767c0-0.423,0.343-0.767,0.767-0.767c0.423,0,0.767,0.344,0.767,0.767
	C538.281,46.444,537.938,46.787,537.515,46.787z M537.515,43.039c-0.424,0-0.767-0.344-0.767-0.767s0.343-0.767,0.767-0.767
	c0.423,0,0.767,0.344,0.767,0.767S537.938,43.039,537.515,43.039z M539.9,54.284c-0.424,0-0.768-0.344-0.768-0.768
	c0-0.423,0.344-0.766,0.768-0.766c0.423,0,0.767,0.343,0.767,0.766C540.667,53.94,540.323,54.284,539.9,54.284z M539.9,50.536
	c-0.424,0-0.768-0.344-0.768-0.768c0-0.423,0.344-0.766,0.768-0.766c0.423,0,0.767,0.343,0.767,0.766
	C540.667,50.192,540.323,50.536,539.9,50.536z M539.9,46.787c-0.424,0-0.768-0.343-0.768-0.767c0-0.423,0.344-0.767,0.768-0.767
	c0.423,0,0.767,0.344,0.767,0.767C540.667,46.444,540.323,46.787,539.9,46.787z M539.9,43.039c-0.424,0-0.768-0.344-0.768-0.767
	s0.344-0.767,0.768-0.767c0.423,0,0.767,0.344,0.767,0.767S540.323,43.039,539.9,43.039z M542.285,54.284
	c-0.424,0-0.767-0.344-0.767-0.768c0-0.423,0.343-0.766,0.767-0.766c0.423,0,0.767,0.343,0.767,0.766
	C543.052,53.94,542.708,54.284,542.285,54.284z M542.285,50.536c-0.424,0-0.767-0.344-0.767-0.768c0-0.423,0.343-0.766,0.767-0.766
	c0.423,0,0.767,0.343,0.767,0.766C543.052,50.192,542.708,50.536,542.285,50.536z M542.285,46.787c-0.424,0-0.767-0.343-0.767-0.767
	c0-0.423,0.343-0.767,0.767-0.767c0.423,0,0.767,0.344,0.767,0.767C543.052,46.444,542.708,46.787,542.285,46.787z M542.285,43.039
	c-0.424,0-0.767-0.344-0.767-0.767s0.343-0.767,0.767-0.767c0.423,0,0.767,0.344,0.767,0.767S542.708,43.039,542.285,43.039z
	 M544.67,54.284c-0.423,0-0.767-0.344-0.767-0.768c0-0.423,0.344-0.766,0.767-0.766c0.424,0,0.768,0.343,0.768,0.766
	C545.438,53.94,545.094,54.284,544.67,54.284z M544.67,50.536c-0.423,0-0.767-0.344-0.767-0.768c0-0.423,0.344-0.766,0.767-0.766
	c0.424,0,0.768,0.343,0.768,0.766C545.438,50.192,545.094,50.536,544.67,50.536z M544.67,46.787c-0.423,0-0.767-0.343-0.767-0.767
	c0-0.423,0.344-0.767,0.767-0.767c0.424,0,0.768,0.344,0.768,0.767C545.438,46.444,545.094,46.787,544.67,46.787z M544.67,43.039
	c-0.423,0-0.767-0.344-0.767-0.767s0.344-0.767,0.767-0.767c0.424,0,0.768,0.344,0.768,0.767S545.094,43.039,544.67,43.039z
	 M547.056,50.536c-0.423,0-0.767-0.344-0.767-0.768c0-0.423,0.344-0.766,0.767-0.766s0.767,0.343,0.767,0.766
	C547.822,50.192,547.479,50.536,547.056,50.536z M547.056,46.787c-0.423,0-0.767-0.343-0.767-0.767c0-0.423,0.344-0.767,0.767-0.767
	s0.767,0.344,0.767,0.767C547.822,46.444,547.479,46.787,547.056,46.787z M547.056,43.039c-0.423,0-0.767-0.344-0.767-0.767
	s0.344-0.767,0.767-0.767s0.767,0.344,0.767,0.767S547.479,43.039,547.056,43.039z"/>
<path fill="#FFFFFF" d="M15.441,41.506c0.207,0,0.395,0.168,0.533,0.302l0.311-1.232h-8.25V30.471l0.337,0.066
	c0.294,0.058,0.594,0.087,0.892,0.087c2.188,0,4.083-1.561,4.504-3.712l0.089-0.454l-0.454-0.089
	c-0.294-0.058-0.594-0.087-0.892-0.087c-2.153,0-4.017,1.515-4.476,3.614v-3.559l0.225-0.044L8.17,25.84
	c-0.422-2.151-2.316-3.713-4.504-3.713c-0.298,0-0.598,0.029-0.892,0.087L2.32,22.303l0.089,0.454
	c0.421,2.151,2.316,3.713,4.506,3.713c0.04,0,0.08-0.011,0.12-0.012v14.117h-6.75l0.311,1.232c0.139-0.134,0.326-0.26,0.533-0.26
	c0.424,0,0.767,0.322,0.767,0.746S1.553,43.05,1.129,43.05c-0.081,0-0.158-0.021-0.232-0.045l0.55,2.322
	c0.265,0.121,0.449,0.385,0.449,0.695c0,0.182-0.065,0.347-0.173,0.478l1.492,6.313c0.092-0.039,0.193-0.062,0.3-0.062
	c0.423,0,0.767,0.343,0.767,0.766c0,0.408-0.319,0.438-0.721,0.462l0.212,0.597h9.025l0.212-0.597
	c-0.401-0.024-0.721-0.204-0.721-0.612c0-0.423,0.344-0.69,0.767-0.69c0.106,0,0.208,0.06,0.3,0.099l1.491-6.293
	c-0.106-0.132-0.173-0.288-0.173-0.471c0-0.31,0.186-0.57,0.45-0.691l0.549-2.322c-0.073,0.023-0.15,0.041-0.231,0.041
	c-0.424,0-0.768-0.343-0.768-0.766C14.674,41.849,15.018,41.506,15.441,41.506z M12.73,27.215c-0.522,1.533-2.036,2.589-3.687,2.477
	C9.567,28.158,11.068,27.115,12.73,27.215z M6.915,25.544c-1.58,0-2.969-1.02-3.469-2.484c1.669-0.097,3.162,0.945,3.687,2.478
	C7.061,25.542,6.987,25.544,6.915,25.544z M3.515,50.536c-0.424,0-0.767-0.344-0.767-0.768c0-0.423,0.343-0.766,0.767-0.766
	c0.423,0,0.767,0.343,0.767,0.766C4.281,50.192,3.938,50.536,3.515,50.536z M3.515,46.787c-0.424,0-0.767-0.343-0.767-0.767
	c0-0.423,0.343-0.767,0.767-0.767c0.423,0,0.767,0.344,0.767,0.767C4.281,46.444,3.938,46.787,3.515,46.787z M3.515,43.039
	c-0.424,0-0.767-0.344-0.767-0.767s0.343-0.767,0.767-0.767c0.423,0,0.767,0.344,0.767,0.767S3.938,43.039,3.515,43.039z
	 M5.9,54.284c-0.424,0-0.768-0.344-0.768-0.768c0-0.423,0.344-0.766,0.768-0.766c0.423,0,0.767,0.343,0.767,0.766
	C6.667,53.94,6.323,54.284,5.9,54.284z M5.9,50.536c-0.424,0-0.768-0.344-0.768-0.768c0-0.423,0.344-0.766,0.768-0.766
	c0.423,0,0.767,0.343,0.767,0.766C6.667,50.192,6.323,50.536,5.9,50.536z M5.9,46.787c-0.424,0-0.768-0.343-0.768-0.767
	c0-0.423,0.344-0.767,0.768-0.767c0.423,0,0.767,0.344,0.767,0.767C6.667,46.444,6.323,46.787,5.9,46.787z M5.9,43.039
	c-0.424,0-0.768-0.344-0.768-0.767s0.344-0.767,0.768-0.767c0.423,0,0.767,0.344,0.767,0.767S6.323,43.039,5.9,43.039z
	 M8.285,54.284c-0.424,0-0.767-0.344-0.767-0.768c0-0.423,0.343-0.766,0.767-0.766c0.423,0,0.767,0.343,0.767,0.766
	C9.052,53.94,8.708,54.284,8.285,54.284z M8.285,50.536c-0.424,0-0.767-0.344-0.767-0.768c0-0.423,0.343-0.766,0.767-0.766
	c0.423,0,0.767,0.343,0.767,0.766C9.052,50.192,8.708,50.536,8.285,50.536z M8.285,46.787c-0.424,0-0.767-0.343-0.767-0.767
	c0-0.423,0.343-0.767,0.767-0.767c0.423,0,0.767,0.344,0.767,0.767C9.052,46.444,8.708,46.787,8.285,46.787z M8.285,43.039
	c-0.424,0-0.767-0.344-0.767-0.767s0.343-0.767,0.767-0.767c0.423,0,0.767,0.344,0.767,0.767S8.708,43.039,8.285,43.039z
	 M10.67,54.284c-0.423,0-0.767-0.344-0.767-0.768c0-0.423,0.344-0.766,0.767-0.766c0.424,0,0.768,0.343,0.768,0.766
	C11.438,53.94,11.094,54.284,10.67,54.284z M10.67,50.536c-0.423,0-0.767-0.344-0.767-0.768c0-0.423,0.344-0.766,0.767-0.766
	c0.424,0,0.768,0.343,0.768,0.766C11.438,50.192,11.094,50.536,10.67,50.536z M10.67,46.787c-0.423,0-0.767-0.343-0.767-0.767
	c0-0.423,0.344-0.767,0.767-0.767c0.424,0,0.768,0.344,0.768,0.767C11.438,46.444,11.094,46.787,10.67,46.787z M10.67,43.039
	c-0.423,0-0.767-0.344-0.767-0.767s0.344-0.767,0.767-0.767c0.424,0,0.768,0.344,0.768,0.767S11.094,43.039,10.67,43.039z
	 M13.056,50.536c-0.423,0-0.767-0.344-0.767-0.768c0-0.423,0.344-0.766,0.767-0.766s0.767,0.343,0.767,0.766
	C13.822,50.192,13.479,50.536,13.056,50.536z M13.056,46.787c-0.423,0-0.767-0.343-0.767-0.767c0-0.423,0.344-0.767,0.767-0.767
	s0.767,0.344,0.767,0.767C13.822,46.444,13.479,46.787,13.056,46.787z M13.056,43.039c-0.423,0-0.767-0.344-0.767-0.767
	s0.344-0.767,0.767-0.767s0.767,0.344,0.767,0.767S13.479,43.039,13.056,43.039z"/>
<path fill="#FFFFFF" d="M113.035,42.575h-90c-0.553,0-1-0.447-1-1s0.447-1,1-1h90c0.553,0,1,0.447,1,1
	S113.588,42.575,113.035,42.575z"/>
<path fill="#FFFFFF" d="M526.473,42.575h-90c-0.553,0-1-0.447-1-1s0.447-1,1-1h90c0.553,0,1,0.447,1,1
	S527.025,42.575,526.473,42.575z"/>
<circle fill="#FFFFFF" cx="119.943" cy="41.908" r="6.334"/>
<path fill="#FFFFFF" d="M216.64,42.575h-90c-0.553,0-1-0.447-1-1s0.447-1,1-1h90c0.553,0,1,0.447,1,1S217.192,42.575,216.64,42.575z
	"/>
<circle fill="#FFFFFF" cx="223.211" cy="41.908" r="6.334"/>
<path fill="#FFFFFF" d="M319.869,42.575h-90c-0.553,0-1-0.447-1-1s0.447-1,1-1h90c0.553,0,1,0.447,1,1
	S320.422,42.575,319.869,42.575z"/>
<circle fill="#FFFFFF" cx="326.479" cy="41.908" r="6.334"/>
<path fill="#FFFFFF" d="M423.035,42.575h-90c-0.553,0-1-0.447-1-1s0.447-1,1-1h90c0.553,0,1,0.447,1,1
	S423.588,42.575,423.035,42.575z"/>
<path fill="#FFFFFF" d="M429.745,49.068c-3.948,0-7.16-3.212-7.16-7.16s3.212-7.16,7.16-7.16s7.16,3.212,7.16,7.16
	S433.693,49.068,429.745,49.068z"/>
</svg>
