<?xml version="1.0" encoding="utf-8"?>
<!-- Generator: Adobe Illustrator 16.0.0, SVG Export Plug-In . SVG Version: 6.00 Build 0)  -->
<!DOCTYPE svg PUBLIC "-//W3C//DTD SVG 1.1//EN" "http://www.w3.org/Graphics/SVG/1.1/DTD/svg11.dtd">
<svg version="1.1" id="Layer_1" xmlns="http://www.w3.org/2000/svg" xmlns:xlink="http://www.w3.org/1999/xlink" x="0px" y="0px"
	 width="35px" height="83px" viewBox="0 0 35 83" enable-background="new 0 0 35 83" xml:space="preserve">
<g>
	<path fill-rule="evenodd" clip-rule="evenodd" fill="#FFFFFF" d="M10.678,52.236c0.693,2.031,2.617,3.443,4.807,3.443
		c0.102,0,0.203-0.004,0.305-0.01C15.064,53.547,13,52.096,10.678,52.236z"/>
	<path fill-rule="evenodd" clip-rule="evenodd" fill="#FFFFFF" d="M23.549,69.166c-2.293-0.137-4.387,1.311-5.113,3.434
		C20.717,72.734,22.822,71.291,23.549,69.166z"/>
	<path fill-rule="evenodd" clip-rule="evenodd" fill="#FFFFFF" d="M10.678,63.406c0.725,2.125,2.824,3.568,5.111,3.436
		C15.063,64.717,12.979,63.273,10.678,63.406z"/>
	<path fill-rule="evenodd" clip-rule="evenodd" fill="#FFFFFF" d="M9.723,32.617c0.32,3.684,3.264,6.629,6.947,6.949
		C16.35,35.883,13.406,32.939,9.723,32.617z"/>
	<path fill-rule="evenodd" clip-rule="evenodd" fill="#FFFFFF" d="M9.723,48.119c3.684-0.322,6.627-3.266,6.947-6.947
		C12.986,41.494,10.043,44.436,9.723,48.119z"/>
	<path fill-rule="evenodd" clip-rule="evenodd" fill="#FFFFFF" d="M23.549,57.996c-2.281-0.131-4.387,1.309-5.113,3.436
		C20.729,61.568,22.822,60.119,23.549,57.996z"/>
	<path fill-rule="evenodd" clip-rule="evenodd" fill="#FFFFFF" d="M25.049,48.119c-0.322-3.684-3.266-6.625-6.949-6.947
		C18.42,44.854,21.365,47.797,25.049,48.119z"/>
	<path fill-rule="evenodd" clip-rule="evenodd" fill="#FFFFFF" d="M18.1,39.566c3.684-0.32,6.627-3.266,6.949-6.949
		C21.365,32.939,18.42,35.883,18.1,39.566z"/>
	<path fill-rule="evenodd" clip-rule="evenodd" fill="#FFFFFF" d="M29.719,14H28v-1h-1.383C26.121,13,26,13.646,26,13.047V4.342
		C26,3.744,26.121,2,26.617,2h0.08c-0.914-1-2.348-2-3.979-2h-11c-1.631,0-3.064,1-3.977,2H7.82C8.316,2,9,3.744,9,4.342v8.705
		C9,13.646,8.316,13,7.82,13H7v1H4.719C1.957,14,0,17.371,0,20.133v59C0,81.895,1.957,83,4.719,83h25C32.48,83,35,81.895,35,79.133
		v-59C35,17.371,32.48,14,29.719,14z M22,4.342C22,3.744,22.121,2,22.617,2h1.203C24.316,2,25,3.744,25,4.342v8.705
		c0,0.6-0.684-0.047-1.18-0.047h-1.203C22.121,13,22,13.646,22,13.047V4.342z M18,4.342C18,3.744,18.121,2,18.617,2h1.203
		C20.316,2,21,3.744,21,4.342v8.705c0,0.6-0.684-0.047-1.18-0.047h-1.203C18.121,13,18,13.646,18,13.047V4.342z M14,4.342
		C14,3.744,14.121,2,14.617,2h1.203C16.316,2,17,3.744,17,4.342v8.705c0,0.6-0.684-0.047-1.18-0.047h-1.203
		C14.121,13,14,13.646,14,13.047V4.342z M10,4.342C10,3.744,10.121,2,10.617,2h1.203C12.316,2,13,3.744,13,4.342v8.705
		c0,0.6-0.684-0.047-1.18-0.047h-1.203C10.121,13,10,13.646,10,13.047V4.342z M27,31.947c0,3.9-2.742,7.375-6.328,8.656
		C24.258,41.746,27,44.891,27,48.789V48h-1.281C22.256,48,20,47.295,18,44.496v15.445c1-1.949,3.051-3.238,5.385-3.238
		c0.412,0,0.757,0.041,1.163,0.119l0.595,0.125l-0.139,0.629c-0.586,2.982-3.08,5.146-6.115,5.146c-0.34,0-0.889-0.033-0.889-0.088
		v8.475c1-1.949,3.051-3.236,5.385-3.236c0.412,0,0.757,0.041,1.165,0.121l0.593,0.123l-0.139,0.629
		c-0.586,2.982-3.08,5.146-6.113,5.146c-0.34,0-0.891-0.033-0.891-0.09V78h-1v-9.986c0,0.08-0.961,0.121-1.373,0.121
		c-3.035,0-5.733-2.164-6.317-5.146L9.15,62.359l0.613-0.125c0.408-0.08,0.957-0.121,1.369-0.121c2.5,0,4.867,1.484,5.867,3.672
		v-8.941c0,0.078-0.963,0.119-1.375,0.119c-3.033,0-5.731-2.164-6.315-5.145L9.15,51.188l0.613-0.123
		c0.408-0.08,0.955-0.121,1.367-0.121c2.502,0,4.869,1.482,5.869,3.67v-9.967C16,47.363,12.453,48,9.051,48H9v0.789
		c0-3.898,2.322-7.043,5.734-8.186C11.322,39.322,9,35.848,9,31.947V30h0.051c3.891,0,7.033,2.611,8.188,6.135
		c1.24-3.523,4.59-6.135,8.48-6.135H27V31.947z"/>
	<path fill-rule="evenodd" clip-rule="evenodd" fill="#FFFFFF" d="M28,13h-0.18c0.496,0,1.18,0.646,1.18,0.047V4.342
		C29,3.744,28.316,2,27.82,2h-1.123C27.33,3,28,5.002,28,6.133V13z"/>
	<path fill-rule="evenodd" clip-rule="evenodd" fill="#FFFFFF" d="M7.742,2H6.617C6.121,2,6,3.744,6,4.342v8.705
		C6,13.646,6.121,13,6.617,13H7V6.133C7,5.002,7.109,3,7.742,2z"/>
</g>
</svg>
