<?xml version="1.0" encoding="utf-8"?>
<!-- Generator: Adobe Illustrator 16.0.0, SVG Export Plug-In . SVG Version: 6.00 Build 0)  -->
<!DOCTYPE svg PUBLIC "-//W3C//DTD SVG 1.1//EN" "http://www.w3.org/Graphics/SVG/1.1/DTD/svg11.dtd">
<svg version="1.1" id="Layer_1" xmlns="http://www.w3.org/2000/svg" xmlns:xlink="http://www.w3.org/1999/xlink" x="0px" y="0px"
	 width="113px" height="89.514px" viewBox="0 0 113 89.514" enable-background="new 0 0 113 89.514" xml:space="preserve">
<g>
	<path fill="#FFFFFF" d="M93.898,2.514c-0.008,0-0.016,0-0.021,0c-0.543,0-0.988,0.439-1,0.983c-0.086,3.774-2.352,6.307-4.49,6.654
		c-1.598,0.257-2.848-0.677-3.568-2.685c-1.043-2.906-2.848-6.533-5.516-7.313c-0.857-0.249-2.195-0.335-3.705,0.829
		c-3.209,2.479-3.045,10.899-2.994,12.044C71.162,13.461,70,14.789,70,16.369v19.5c0,0.217,0.174,0.428,0.305,0.6l2.552,3.334
		c0.189,0.252,0.511,0.4,0.825,0.4s0.626-0.148,0.813-0.4l2.403-3.334c0.129-0.172,0.102-0.383,0.102-0.6v-19.5
		c0-1.582-0.959-2.908-2.402-3.338c0-0.014,0.06-0.023,0.058-0.037c-0.156-3.305,0.306-8.906,2.138-10.322
		c0.686-0.531,1.329-0.689,1.935-0.514c1.41,0.412,2.983,2.701,4.2,6.09c1.051,2.932,3.203,4.479,5.775,4.061
		c2.906-0.473,6.057-3.765,6.172-8.761C94.887,2.995,94.451,2.514,93.898,2.514z M75,16.369v19.168l-1.5,2l-1.5-2V16.369
		c0-0.826,0.674-1.5,1.5-1.5C74.328,14.869,75,15.543,75,16.369z"/>
	<g>
		<path fill="#FFFFFF" d="M39.809,82.173c0.299-0.129,0.629-0.026,0.977-0.026c1.375,0,2.49,1.201,2.49,2.576
			c0,1.326-1.037,2.097-2.342,2.177l0.689,2.614h29.332l0.688-2.571c-1.303-0.08-2.342-0.98-2.342-2.307
			c0-1.375,1.117-2.403,2.492-2.403c0.346,0,0.676-0.231,0.977-0.103l3.381-14.616H36.428L39.809,82.173z M71.793,70.137
			c1.375,0,2.492,1.115,2.492,2.49c0,1.377-1.117,2.492-2.492,2.492s-2.492-1.115-2.492-2.492
			C69.301,71.252,70.418,70.137,71.793,70.137z M64.041,70.137c1.375,0,2.492,1.115,2.492,2.49c0,1.377-1.117,2.492-2.492,2.492
			s-2.492-1.115-2.492-2.492C61.549,71.252,62.666,70.137,64.041,70.137z M64.041,82.318c1.375,0,2.492,1.115,2.492,2.49
			c0,1.377-1.117,2.492-2.492,2.492s-2.492-1.115-2.492-2.492C61.549,83.434,62.666,82.318,64.041,82.318z M56.289,70.137
			c1.375,0,2.492,1.115,2.492,2.49c0,1.377-1.117,2.492-2.492,2.492c-1.377,0-2.492-1.115-2.492-2.492
			C53.797,71.252,54.912,70.137,56.289,70.137z M56.289,82.318c1.375,0,2.492,1.115,2.492,2.49c0,1.377-1.117,2.492-2.492,2.492
			c-1.377,0-2.492-1.115-2.492-2.492C53.797,83.434,54.912,82.318,56.289,82.318z M48.537,70.137c1.375,0,2.492,1.115,2.492,2.49
			c0,1.377-1.117,2.492-2.492,2.492c-1.377,0-2.492-1.115-2.492-2.492C46.045,71.252,47.16,70.137,48.537,70.137z M48.537,82.318
			c1.375,0,2.492,1.115,2.492,2.49c0,1.377-1.117,2.492-2.492,2.492c-1.377,0-2.492-1.115-2.492-2.492
			C46.045,83.434,47.16,82.318,48.537,82.318z M40.785,70.137c1.375,0,2.49,1.115,2.49,2.49c0,1.377-1.115,2.492-2.49,2.492
			c-1.377,0-2.492-1.115-2.492-2.492C38.293,71.252,39.408,70.137,40.785,70.137z"/>
		<path fill="#FFFFFF" d="M77.613,61.657c-0.344-0.427-0.561-0.792-0.561-1.384c0-1.008,0.602-1.785,1.463-2.178l1.783-7.513
			c-0.238,0.076-0.488,0.151-0.754,0.151c-1.375,0-2.492-1.106-2.492-2.481s1.117-2.485,2.492-2.485
			c0.674,0,1.285-0.071,1.734,0.364l1.01-4.618H57V19.963c0,0.074,0.998,0.123,1.506,0.123c5.025,0,9.364-3.584,10.333-8.521
			l0.198-1.041l-1.044-0.205c-0.676-0.133-1.347-0.201-2.03-0.201c-3.74,0-6.963,1.99-8.963,5.047v-4.977l0.201-0.043l-0.214-1.043
			c-0.969-4.939-5.323-8.523-10.347-8.523c-0.684,0-1.374,0.068-2.05,0.201l-1.046,0.205l0.207,1.041
			c0.969,4.939,5.338,8.523,10.363,8.523c0.287,0,0.885-0.02,0.885-0.043v31.008H30.289l1.01,4.621
			c0.449-0.436,1.059-0.535,1.734-0.535c1.375,0,2.49,1.203,2.49,2.578s-1.115,2.534-2.49,2.534c-0.266,0-0.516-0.03-0.756-0.106
			l1.785,7.565c0.859,0.393,1.461,1.263,1.461,2.271c0,0.592-0.215,0.786-0.561,1.213l0.52,1.859h41.611L77.613,61.657z
			 M66.447,12.258c-1.203,3.52-4.666,5.922-8.465,5.688C59.186,14.426,62.641,12.031,66.447,12.258z M54.094,8.422
			c-3.627,0-6.813-2.34-7.963-5.703c3.809-0.225,7.264,2.17,8.465,5.689C54.428,8.418,54.26,8.422,54.094,8.422z M40.785,62.938
			c-1.377,0-2.492-1.115-2.492-2.492c0-1.375,1.115-2.492,2.492-2.492c1.375,0,2.49,1.117,2.49,2.492
			C43.275,61.822,42.16,62.938,40.785,62.938z M40.785,50.756c-1.377,0-2.492-1.117-2.492-2.492s1.115-2.492,2.492-2.492
			c1.375,0,2.49,1.117,2.49,2.492S42.16,50.756,40.785,50.756z M48.537,62.938c-1.377,0-2.492-1.115-2.492-2.492
			c0-1.375,1.115-2.492,2.492-2.492c1.375,0,2.492,1.117,2.492,2.492C51.029,61.822,49.912,62.938,48.537,62.938z M48.537,50.756
			c-1.377,0-2.492-1.117-2.492-2.492s1.115-2.492,2.492-2.492c1.375,0,2.492,1.117,2.492,2.492S49.912,50.756,48.537,50.756z
			 M56.289,62.938c-1.377,0-2.492-1.115-2.492-2.492c0-1.375,1.115-2.492,2.492-2.492c1.375,0,2.492,1.117,2.492,2.492
			C58.781,61.822,57.664,62.938,56.289,62.938z M56.289,50.756c-1.377,0-2.492-1.117-2.492-2.492s1.115-2.492,2.492-2.492
			c1.375,0,2.492,1.117,2.492,2.492S57.664,50.756,56.289,50.756z M64.041,62.938c-1.375,0-2.492-1.115-2.492-2.492
			c0-1.375,1.117-2.492,2.492-2.492s2.492,1.117,2.492,2.492C66.533,61.822,65.416,62.938,64.041,62.938z M64.041,50.756
			c-1.375,0-2.492-1.117-2.492-2.492s1.117-2.492,2.492-2.492s2.492,1.117,2.492,2.492S65.416,50.756,64.041,50.756z M71.793,62.938
			c-1.375,0-2.492-1.115-2.492-2.492c0-1.375,1.117-2.492,2.492-2.492s2.492,1.117,2.492,2.492
			C74.285,61.822,73.168,62.938,71.793,62.938z M71.793,50.756c-1.375,0-2.492-1.117-2.492-2.492s1.117-2.492,2.492-2.492
			s2.492,1.117,2.492,2.492S73.168,50.756,71.793,50.756z"/>
		<polygon fill="#FFFFFF" points="113,63.514 77.094,63.514 76.15,67.514 113,67.514 		"/>
		<polygon fill="#FFFFFF" points="0,63.514 0,67.514 36.428,67.514 35.482,63.514 		"/>
	</g>
</g>
</svg>
