<?xml version="1.0" encoding="utf-8"?>
<!-- Generator: Adobe Illustrator 16.0.0, SVG Export Plug-In . SVG Version: 6.00 Build 0)  -->
<!DOCTYPE svg PUBLIC "-//W3C//DTD SVG 1.1//EN" "http://www.w3.org/Graphics/SVG/1.1/DTD/svg11.dtd">
<svg version="1.1" id="Layer_1" xmlns="http://www.w3.org/2000/svg" xmlns:xlink="http://www.w3.org/1999/xlink" x="0px" y="0px"
	 width="113px" height="88.957px" viewBox="0 0 113 88.957" enable-background="new 0 0 113 88.957" xml:space="preserve">
<g>
	<path fill="#FFFFFF" d="M77.431,61.09c-0.344-0.427-0.561-0.797-0.561-1.389c0-1.008,0.602-1.788,1.463-2.181l1.783-7.514
		c-0.238,0.076-0.488,0.149-0.754,0.149c-1.375,0-2.492-1.105-2.492-2.48s1.117-2.486,2.492-2.486c0.674,0,1.285-0.061,1.734,0.375
		l1.01-4.607H56V19.385c0,0.074,1.407,0.123,1.915,0.123c5.025,0,9.569-3.584,10.538-8.521l0.301-1.041L67.761,9.74
		c-0.676-0.133-1.729-0.201-2.413-0.201c-3.74,0-7.348,1.99-9.348,5.047V9.609l0.61-0.043l-0.009-1.043
		C55.633,3.584,51.381,0,46.357,0c-0.684,0-1.323,0.068-1.999,0.201l-1.021,0.205l0.22,1.041c0.969,4.939,4.936,8.523,9.961,8.523
		c0.287,0,0.482-0.02,0.482-0.043v31.029H30.106l1.01,4.61c0.449-0.436,1.059-0.54,1.734-0.54c1.375,0,2.49,1.199,2.49,2.575
		c0,1.375-1.115,2.533-2.49,2.533c-0.266,0-0.516-0.032-0.756-0.108l1.785,7.566c0.859,0.393,1.461,1.262,1.461,2.27
		c0,0.592-0.215,0.797-0.561,1.224l0.52,1.87h41.611L77.431,61.09z M66.265,11.68c-1.203,3.52-4.666,5.922-8.465,5.688
		C59.003,13.848,62.458,11.453,66.265,11.68z M45.948,2.141c3.809-0.225,7.264,2.17,8.465,5.689
		c-0.168,0.01-0.336,0.014-0.502,0.014C50.284,7.844,47.099,5.504,45.948,2.141z M40.603,62.359c-1.377,0-2.492-1.115-2.492-2.492
		c0-1.375,1.115-2.492,2.492-2.492c1.375,0,2.49,1.117,2.49,2.492C43.093,61.244,41.978,62.359,40.603,62.359z M40.603,50.178
		c-1.377,0-2.492-1.117-2.492-2.492s1.115-2.492,2.492-2.492c1.375,0,2.49,1.117,2.49,2.492S41.978,50.178,40.603,50.178z
		 M48.354,62.359c-1.377,0-2.492-1.115-2.492-2.492c0-1.375,1.115-2.492,2.492-2.492c1.375,0,2.492,1.117,2.492,2.492
		C50.847,61.244,49.729,62.359,48.354,62.359z M48.354,50.178c-1.377,0-2.492-1.117-2.492-2.492s1.115-2.492,2.492-2.492
		c1.375,0,2.492,1.117,2.492,2.492S49.729,50.178,48.354,50.178z M56.106,62.359c-1.377,0-2.492-1.115-2.492-2.492
		c0-1.375,1.115-2.492,2.492-2.492c1.375,0,2.492,1.117,2.492,2.492C58.599,61.244,57.481,62.359,56.106,62.359z M56.106,50.178
		c-1.377,0-2.492-1.117-2.492-2.492s1.115-2.492,2.492-2.492c1.375,0,2.492,1.117,2.492,2.492S57.481,50.178,56.106,50.178z
		 M63.858,62.359c-1.375,0-2.492-1.115-2.492-2.492c0-1.375,1.117-2.492,2.492-2.492s2.492,1.117,2.492,2.492
		C66.351,61.244,65.233,62.359,63.858,62.359z M63.858,50.178c-1.375,0-2.492-1.117-2.492-2.492s1.117-2.492,2.492-2.492
		s2.492,1.117,2.492,2.492S65.233,50.178,63.858,50.178z M71.61,62.359c-1.375,0-2.492-1.115-2.492-2.492
		c0-1.375,1.117-2.492,2.492-2.492s2.492,1.117,2.492,2.492C74.103,61.244,72.985,62.359,71.61,62.359z M71.61,50.178
		c-1.375,0-2.492-1.117-2.492-2.492s1.117-2.492,2.492-2.492s2.492,1.117,2.492,2.492S72.985,50.178,71.61,50.178z"/>
	<path fill="#FFFFFF" d="M39.626,81.605c0.299-0.129,0.629-0.031,0.977-0.031c1.375,0,2.49,1.197,2.49,2.572
		c0,1.326-1.037,2.107-2.342,2.188l0.689,2.623h29.332l0.688-2.582c-1.303-0.08-2.342-0.986-2.342-2.313
		c0-1.375,1.117-2.406,2.492-2.406c0.346,0,0.676-0.221,0.977-0.092l3.381-14.607H36.245L39.626,81.605z M71.61,69.559
		c1.375,0,2.492,1.115,2.492,2.49c0,1.377-1.117,2.492-2.492,2.492s-2.492-1.115-2.492-2.492
		C69.118,70.674,70.235,69.559,71.61,69.559z M63.858,69.559c1.375,0,2.492,1.115,2.492,2.49c0,1.377-1.117,2.492-2.492,2.492
		s-2.492-1.115-2.492-2.492C61.366,70.674,62.483,69.559,63.858,69.559z M63.858,81.74c1.375,0,2.492,1.115,2.492,2.49
		c0,1.377-1.117,2.492-2.492,2.492s-2.492-1.115-2.492-2.492C61.366,82.855,62.483,81.74,63.858,81.74z M56.106,69.559
		c1.375,0,2.492,1.115,2.492,2.49c0,1.377-1.117,2.492-2.492,2.492c-1.377,0-2.492-1.115-2.492-2.492
		C53.614,70.674,54.729,69.559,56.106,69.559z M56.106,81.74c1.375,0,2.492,1.115,2.492,2.49c0,1.377-1.117,2.492-2.492,2.492
		c-1.377,0-2.492-1.115-2.492-2.492C53.614,82.855,54.729,81.74,56.106,81.74z M48.354,69.559c1.375,0,2.492,1.115,2.492,2.49
		c0,1.377-1.117,2.492-2.492,2.492c-1.377,0-2.492-1.115-2.492-2.492C45.862,70.674,46.978,69.559,48.354,69.559z M48.354,81.74
		c1.375,0,2.492,1.115,2.492,2.49c0,1.377-1.117,2.492-2.492,2.492c-1.377,0-2.492-1.115-2.492-2.492
		C45.862,82.855,46.978,81.74,48.354,81.74z M40.603,69.559c1.375,0,2.49,1.115,2.49,2.49c0,1.377-1.115,2.492-2.49,2.492
		c-1.377,0-2.492-1.115-2.492-2.492C38.11,70.674,39.226,69.559,40.603,69.559z"/>
	<polygon fill="#FFFFFF" points="113,62.957 76.911,62.957 75.968,66.957 113,66.957 	"/>
	<polygon fill="#FFFFFF" points="0,62.957 0,66.957 36.245,66.957 35.3,62.957 	"/>
</g>
</svg>
