<?xml version="1.0" encoding="utf-8"?>
<!-- Generator: Adobe Illustrator 16.0.0, SVG Export Plug-In . SVG Version: 6.00 Build 0)  -->
<!DOCTYPE svg PUBLIC "-//W3C//DTD SVG 1.1//EN" "http://www.w3.org/Graphics/SVG/1.1/DTD/svg11.dtd">
<svg version="1.1" id="Layer_1" xmlns="http://www.w3.org/2000/svg" xmlns:xlink="http://www.w3.org/1999/xlink" x="0px" y="0px"
	 width="52px" height="108.979px" viewBox="0 0 52 108.979" enable-background="new 0 0 52 108.979" xml:space="preserve">
<g>
	<path fill="#FFFFFF" d="M37.701,9.74c-0.676-0.133-1.248-0.201-1.932-0.201c-3.74,0-6.865,1.99-8.865,5.047V9.609l0.105-0.043
		l-0.264-1.043C25.777,3.584,21.4,0,16.377,0c-0.684,0-1.388,0.068-2.063,0.201l-1.05,0.205l0.201,1.041
		c0.969,4.939,5.434,8.523,10.459,8.523c0.287,0-0.02-0.02,0.98-0.043v31.051h-4.949l4,11h4l4-11h-5.051V19.385
		c0,0.074,0.902,0.123,1.41,0.123c5.025,0,9.314-3.584,10.283-8.521l0.176-1.041L37.701,9.74z M23.805,7.844
		c-3.627,0-6.813-2.34-7.963-5.703c3.816-0.23,7.262,2.17,8.465,5.689C24.139,7.84,23.971,7.844,23.805,7.844z M27.693,17.367
		c1.203-3.52,4.666-5.908,8.465-5.688C34.955,15.199,31.486,17.592,27.693,17.367z"/>
	<path fill="#FFFFFF" d="M1.01,65.578c0.449-0.436,1.059-0.546,1.734-0.546c1.375,0,2.49,1.197,2.49,2.573
		c0,1.375-1.115,2.531-2.49,2.531c-0.266,0-0.516-0.032-0.756-0.108l1.785,7.565c0.859,0.393,1.461,1.262,1.461,2.27
		c0,0.592-0.215,1.131-0.561,1.557l4.846,20.518c0.299-0.127,0.629-0.197,0.977-0.197c1.375,0,2.49,1.115,2.49,2.49
		c0,1.326-1.037,2.075-2.342,2.155l0.689,2.593h29.332l0.688-2.593c-1.303-0.08-2.342-0.991-2.342-2.317
		c0-1.375,1.117-2.409,2.492-2.409c0.346,0,0.676,0.111,0.977,0.24l4.844-20.496c-0.344-0.427-0.561-0.954-0.561-1.546
		c0-1.008,0.602-1.865,1.463-2.258l1.783-7.555c-0.238,0.076-0.488,0.131-0.754,0.131c-1.375,0-2.492-1.115-2.492-2.49
		c0-1.376,1.117-2.492,2.492-2.492c0.674,0,1.285-0.051,1.734,0.385l1.01-4.6H0L1.01,65.578z M41.504,65.193
		c1.375,0,2.492,1.117,2.492,2.492s-1.117,2.492-2.492,2.492s-2.492-1.117-2.492-2.492S40.129,65.193,41.504,65.193z M41.504,77.375
		c1.375,0,2.492,1.117,2.492,2.492c0,1.377-1.117,2.492-2.492,2.492s-2.492-1.115-2.492-2.492
		C39.012,78.492,40.129,77.375,41.504,77.375z M41.504,89.559c1.375,0,2.492,1.115,2.492,2.49c0,1.377-1.117,2.492-2.492,2.492
		s-2.492-1.115-2.492-2.492C39.012,90.674,40.129,89.559,41.504,89.559z M33.752,65.193c1.375,0,2.492,1.117,2.492,2.492
		s-1.117,2.492-2.492,2.492s-2.492-1.117-2.492-2.492S32.377,65.193,33.752,65.193z M33.752,77.375c1.375,0,2.492,1.117,2.492,2.492
		c0,1.377-1.117,2.492-2.492,2.492s-2.492-1.115-2.492-2.492C31.26,78.492,32.377,77.375,33.752,77.375z M33.752,89.559
		c1.375,0,2.492,1.115,2.492,2.49c0,1.377-1.117,2.492-2.492,2.492s-2.492-1.115-2.492-2.492
		C31.26,90.674,32.377,89.559,33.752,89.559z M33.752,101.74c1.375,0,2.492,1.115,2.492,2.49c0,1.377-1.117,2.492-2.492,2.492
		s-2.492-1.115-2.492-2.492C31.26,102.855,32.377,101.74,33.752,101.74z M26,65.193c1.375,0,2.492,1.117,2.492,2.492
		S27.375,70.178,26,70.178c-1.377,0-2.492-1.117-2.492-2.492S24.623,65.193,26,65.193z M26,77.375c1.375,0,2.492,1.117,2.492,2.492
		c0,1.377-1.117,2.492-2.492,2.492c-1.377,0-2.492-1.115-2.492-2.492C23.508,78.492,24.623,77.375,26,77.375z M26,89.559
		c1.375,0,2.492,1.115,2.492,2.49c0,1.377-1.117,2.492-2.492,2.492c-1.377,0-2.492-1.115-2.492-2.492
		C23.508,90.674,24.623,89.559,26,89.559z M26,101.74c1.375,0,2.492,1.115,2.492,2.49c0,1.377-1.117,2.492-2.492,2.492
		c-1.377,0-2.492-1.115-2.492-2.492C23.508,102.855,24.623,101.74,26,101.74z M18.248,65.193c1.375,0,2.492,1.117,2.492,2.492
		s-1.117,2.492-2.492,2.492c-1.377,0-2.492-1.117-2.492-2.492S16.871,65.193,18.248,65.193z M18.248,77.375
		c1.375,0,2.492,1.117,2.492,2.492c0,1.377-1.117,2.492-2.492,2.492c-1.377,0-2.492-1.115-2.492-2.492
		C15.756,78.492,16.871,77.375,18.248,77.375z M18.248,89.559c1.375,0,2.492,1.115,2.492,2.49c0,1.377-1.117,2.492-2.492,2.492
		c-1.377,0-2.492-1.115-2.492-2.492C15.756,90.674,16.871,89.559,18.248,89.559z M18.248,101.74c1.375,0,2.492,1.115,2.492,2.49
		c0,1.377-1.117,2.492-2.492,2.492c-1.377,0-2.492-1.115-2.492-2.492C15.756,102.855,16.871,101.74,18.248,101.74z M10.496,65.193
		c1.375,0,2.49,1.117,2.49,2.492s-1.115,2.492-2.49,2.492c-1.377,0-2.492-1.117-2.492-2.492S9.119,65.193,10.496,65.193z
		 M10.496,77.375c1.375,0,2.49,1.117,2.49,2.492c0,1.377-1.115,2.492-2.49,2.492c-1.377,0-2.492-1.115-2.492-2.492
		C8.004,78.492,9.119,77.375,10.496,77.375z M10.496,89.559c1.375,0,2.49,1.115,2.49,2.49c0,1.377-1.115,2.492-2.49,2.492
		c-1.377,0-2.492-1.115-2.492-2.492C8.004,90.674,9.119,89.559,10.496,89.559z"/>
</g>
</svg>
