<?xml version="1.0" encoding="utf-8"?>
<!-- Generator: Adobe Illustrator 16.0.0, SVG Export Plug-In . SVG Version: 6.00 Build 0)  -->
<!DOCTYPE svg PUBLIC "-//W3C//DTD SVG 1.1//EN" "http://www.w3.org/Graphics/SVG/1.1/DTD/svg11.dtd">
<svg version="1.1" id="Layer_1" xmlns="http://www.w3.org/2000/svg" xmlns:xlink="http://www.w3.org/1999/xlink" x="0px" y="0px"
	 width="46px" height="46px" viewBox="0 0 46 46" enable-background="new 0 0 46 46" xml:space="preserve">
<g>
	<path fill="#FFFFFF" d="M46,41.333C46,43.91,43.91,46,41.333,46H4.667C2.09,46,0,43.91,0,41.333V4.667C0,2.09,2.09,0,4.667,0
		h36.666C43.91,0,46,2.09,46,4.667V41.333z M44,4.667C44,3.193,42.806,2,41.333,2H4.667C3.194,2,2,3.193,2,4.667v36.666
		C2,42.807,3.194,44,4.667,44h36.666C42.806,44,44,42.807,44,41.333V4.667z"/>
	<path fill-rule="evenodd" clip-rule="evenodd" fill="#FFFFFF" d="M17.223,22.652c0-3.318,0-6.635,0-9.951
		c0-0.555-0.033-1.109,0.014-1.658c0.133-1.545,0.666-1.854,1.885-0.959c1.408,1.033,2.725,2.193,4.066,3.314
		c3.182,2.656,6.369,5.303,9.52,7.992c1.533,1.309,1.535,1.736,0.016,3.016c-4.297,3.617-8.625,7.197-12.941,10.791
		c-0.213,0.176-0.416,0.371-0.65,0.512c-1.102,0.648-1.758,0.361-1.879-0.895c-0.09-0.914-0.029-1.842-0.029-2.764
		C17.223,28.918,17.223,25.785,17.223,22.652z M31.58,23.045c-3.666-3.914-10.703-9.488-12.527-9.955c0,6.6,0,13.184,0,20.375
		C23.479,29.785,27.521,26.42,31.58,23.045z"/>
</g>
</svg>
