<?xml version="1.0" encoding="utf-8"?>
<!-- Generator: Adobe Illustrator 16.0.0, SVG Export Plug-In . SVG Version: 6.00 Build 0)  -->
<!DOCTYPE svg PUBLIC "-//W3C//DTD SVG 1.1//EN" "http://www.w3.org/Graphics/SVG/1.1/DTD/svg11.dtd">
<svg version="1.1" id="Layer_1" xmlns="http://www.w3.org/2000/svg" xmlns:xlink="http://www.w3.org/1999/xlink" x="0px" y="0px"
	 width="46px" height="46px" viewBox="0 0 46 46" enable-background="new 0 0 46 46" xml:space="preserve">
<g>
	<path fill="#FFFFFF" d="M46,41.333C46,43.91,43.91,46,41.333,46H4.667C2.09,46,0,43.91,0,41.333V4.667C0,2.09,2.09,0,4.667,0
		h36.666C43.91,0,46,2.09,46,4.667V41.333z M44,4.667C44,3.194,42.806,2,41.333,2H4.667C3.194,2,2,3.194,2,4.667v36.666
		C2,42.806,3.194,44,4.667,44h36.666C42.806,44,44,42.806,44,41.333V4.667z"/>
	<g>
		<path fill-rule="evenodd" clip-rule="evenodd" fill="#FFFFFF" d="M24.12,31.133c-2.723,0-5.446,0.02-8.169-0.006
			c-3.098-0.028-3.884-0.796-3.902-3.844c-0.025-4.266-0.041-8.532,0.012-12.797c0.019-1.432-0.062-2.566-1.959-2.338
			c-0.572,0.068-1.191-0.168-1.163-0.831c0.027-0.646,0.649-0.786,1.229-0.792c0.635-0.007,1.271,0.018,1.905-0.014
			c1.149-0.057,1.56,0.476,1.656,1.612c0.197,2.351,0.262,2.359,2.747,2.363c5.082,0.008,10.165-0.018,15.248,0.011
			c2.938,0.016,3.235,0.348,3.252,3.314c0.013,2.178,0.036,4.357-0.009,6.534c-0.045,2.193-0.357,2.527-2.554,2.543
			c-4.991,0.037-9.984,0.013-14.977,0.014c-0.635,0-1.271-0.017-1.905,0.007c-0.803,0.031-1.791-0.097-1.702,1.156
			c0.08,1.121,0.996,1.14,1.827,1.142c5.174,0.01,10.348,0.006,15.521,0.01c0.727,0,1.454-0.017,2.178,0.028
			c0.642,0.039,1.378,0.142,1.395,0.962c0.018,0.868-0.731,0.905-1.372,0.912c-1.724,0.018-3.449,0.012-5.174,0.013
			C26.844,31.134,25.481,31.133,24.12,31.133z M23.58,25.239c2.633,0,5.269-0.063,7.898,0.025c1.448,0.047,1.913-0.527,1.853-1.906
			c-0.079-1.813-0.041-3.631-0.017-5.446c0.013-0.998-0.368-1.505-1.424-1.502c-5.538,0.013-11.078,0.016-16.615-0.013
			c-1.182-0.006-1.604,0.518-1.576,1.649c0.043,1.814,0.059,3.634-0.008,5.446c-0.047,1.27,0.404,1.795,1.719,1.764
			C18.132,25.19,20.856,25.236,23.58,25.239z"/>
		<path fill-rule="evenodd" clip-rule="evenodd" fill="#FFFFFF" d="M32.027,35.021c-0.043,0.96-0.519,1.545-1.473,1.646
			c-0.931,0.097-1.811-0.761-1.713-1.678c0.1-0.939,0.676-1.499,1.618-1.496C31.419,33.496,31.918,34.093,32.027,35.021z"/>
		<path fill-rule="evenodd" clip-rule="evenodd" fill="#FFFFFF" d="M15.3,35.213c-0.149,0.927-0.677,1.487-1.642,1.441
			c-0.947-0.046-1.489-0.628-1.543-1.568c-0.053-0.917,0.881-1.752,1.791-1.599C14.84,33.646,15.302,34.251,15.3,35.213z"/>
	</g>
</g>
</svg>
