<?xml version="1.0" encoding="utf-8"?>
<!-- Generator: Adobe Illustrator 16.0.0, SVG Export Plug-In . SVG Version: 6.00 Build 0)  -->
<!DOCTYPE svg PUBLIC "-//W3C//DTD SVG 1.1//EN" "http://www.w3.org/Graphics/SVG/1.1/DTD/svg11.dtd">
<svg version="1.1" id="Layer_1" xmlns="http://www.w3.org/2000/svg" xmlns:xlink="http://www.w3.org/1999/xlink" x="0px" y="0px"
	 width="119.057px" height="119.055px" viewBox="0 0 119.057 119.055" enable-background="new 0 0 119.057 119.055"
	 xml:space="preserve">
<g>
	<path fill="#FFFFFF" d="M116.221,119.055H2.835c-1.565,0-2.835-1.27-2.835-2.834V24.094c0-0.752,0.299-1.473,0.83-2.004L22.09,0.83
		C22.622,0.297,23.343,0,24.095,0h70.866c0.752,0,1.473,0.297,2.004,0.83l21.262,21.26c0.531,0.531,0.83,1.252,0.83,2.004v92.127
		C119.057,117.785,117.787,119.055,116.221,119.055z M5.67,113.385h107.717V25.268l-19.6-19.6H25.27l-19.6,19.6V113.385z"/>
	<g>
		
			<path fill="none" stroke="#FFFFFF" stroke-width="1.5887" stroke-linecap="round" stroke-linejoin="round" stroke-miterlimit="10" d="
			M40.867,61.074c0.337,3.105,2.36,10.561,31.016,14.924c0,0,10.948,1.482,12.89-1.65c1.94-3.131-7.812-4.77-9.705-5.477
			c-11.408-4.26-19.584-17.305-24.154-18.834c-2.801-0.936-8.454-0.889-8.454-0.889l-5.028-6.443l-3.4,4.166l6.646,4.809
			C40.677,51.68,40.663,59.186,40.867,61.074z"/>
		
			<path fill="none" stroke="#FFFFFF" stroke-width="1.5887" stroke-linecap="round" stroke-linejoin="round" stroke-miterlimit="10" d="
			M48.554,49.66c-1.105,3.545-4.014,6.432-7.811,7.896"/>
		
			<path fill="none" stroke="#FFFFFF" stroke-width="1.5887" stroke-linecap="round" stroke-linejoin="round" stroke-miterlimit="10" d="
			M43.503,59.924c0,0,2.469,6.012,8.467,7.732"/>
	</g>
</g>
</svg>
