<?xml version="1.0" encoding="utf-8"?>
<!-- Generator: Adobe Illustrator 16.0.0, SVG Export Plug-In . SVG Version: 6.00 Build 0)  -->
<!DOCTYPE svg PUBLIC "-//W3C//DTD SVG 1.1//EN" "http://www.w3.org/Graphics/SVG/1.1/DTD/svg11.dtd">
<svg version="1.1" id="Layer_1" xmlns="http://www.w3.org/2000/svg" xmlns:xlink="http://www.w3.org/1999/xlink" x="0px" y="0px"
	 width="46px" height="46px" viewBox="0 0 46 46" enable-background="new 0 0 46 46" xml:space="preserve">
<g>
	<path fill="#FFFFFF" d="M45,41.333C45,43.91,42.91,46,40.333,46H3.667C1.09,46-1,43.91-1,41.333V4.667C-1,2.09,1.09,0,3.667,0
		h36.666C42.91,0,45,2.09,45,4.667V41.333z M43,4.667C43,3.194,41.806,2,40.333,2H3.667C2.194,2,1,3.194,1,4.667v36.666
		C1,42.806,2.194,44,3.667,44h36.666C41.806,44,43,42.806,43,41.333V4.667z"/>
	<path fill-rule="evenodd" clip-rule="evenodd" fill="#FFFFFF" d="M16.199,22.818c0-3.317,0-6.634,0-9.951
		c0-0.554-0.033-1.109,0.014-1.657c0.133-1.546,0.666-1.854,1.885-0.959c1.408,1.033,2.726,2.192,4.067,3.313
		c3.182,2.656,6.369,5.303,9.52,7.993c1.532,1.308,1.535,1.736,0.016,3.015c-4.297,3.617-8.625,7.197-12.942,10.791
		c-0.213,0.177-0.415,0.372-0.65,0.512c-1.101,0.649-1.758,0.362-1.879-0.895c-0.089-0.914-0.028-1.842-0.029-2.763
		C16.199,29.085,16.199,25.951,16.199,22.818z M30.557,23.211c-3.666-3.914-10.702-9.487-12.526-9.954c0,6.599,0,13.184,0,20.375
		C22.455,29.951,26.499,26.587,30.557,23.211z"/>
</g>
</svg>
