<?xml version="1.0" encoding="utf-8"?>
<!-- Generator: Adobe Illustrator 16.0.0, SVG Export Plug-In . SVG Version: 6.00 Build 0)  -->
<!DOCTYPE svg PUBLIC "-//W3C//DTD SVG 1.1//EN" "http://www.w3.org/Graphics/SVG/1.1/DTD/svg11.dtd">
<svg version="1.1" id="Layer_1" xmlns="http://www.w3.org/2000/svg" xmlns:xlink="http://www.w3.org/1999/xlink" x="0px" y="0px"
	 width="119.057px" height="119.055px" viewBox="0 0 119.057 119.055" enable-background="new 0 0 119.057 119.055"
	 xml:space="preserve">
<g>
	<path fill="#FFFFFF" d="M116.221,119.055H2.836c-1.566,0-2.836-1.27-2.836-2.834V24.094c0-0.752,0.299-1.473,0.83-2.004L22.09,0.83
		C22.623,0.299,23.344,0,24.096,0h70.865c0.752,0,1.473,0.299,2.004,0.83l21.262,21.26c0.531,0.531,0.83,1.252,0.83,2.004v92.127
		C119.057,117.785,117.787,119.055,116.221,119.055z M5.67,113.385h107.717V25.268l-19.6-19.6H25.27l-19.6,19.6V113.385z"/>
	<path fill="#FFFFFF" d="M87.025,40.415c-1,0-1.332,0.057-2.053,0.139c-1.539,0.122-2.978,0.479-4.429,1.052
		c-8.502,3.045-15.684,11.76-19.979,23.459c-0.712-18.155-6.602-33.003-14.572-35.893c-0.604-0.326-0.968-0.516-1.968-0.516v0.064
		c0-0.04-1-0.064-1-0.064v1.564c1,0,1.557,0.131,2.264,0.375c4.504,2.761,10.01,21.045,10.834,42.803
		c-3.625-18.035-13.098-31.075-23.098-31.075v1.564c11,0,19.646,19.968,19.646,45.968h1.564c0-14-2.603-27.209-6.878-35.802
		c5.361,8.491,9.001,21.802,9.001,35.802h1.564c0-13,3.576-25.773,9.236-34.559c-4.661,8.807-7.488,20.559-7.488,33.559h0.021
		c-0.01,0-0.021,1-0.021,1h1.564c0-10,3.785-17.949,9.433-22.571c-4.479,5.212-7.372,13.571-7.372,22.571h1.564
		c0-15,7.164-26.542,16.164-26.542v-1.564c-9,0-15.633,6.549-19.178,15.682c2.174-16.517,9.036-29.458,17.845-33.794
		c1.777-0.793,3.522-1.307,5.406-1.525c0.339-0.025,0.927-0.048,0.927-0.048v-0.042c0-0.019,1-0.042,1-0.042V40.415z M59.336,68.855
		c-0.543,2-1.015,3.709-1.416,5.643c-0.458-15.312-3.269-31.576-7.474-40.008c4.938,6.142,8.663,18.365,8.663,34.365H59.336z"/>
</g>
</svg>
