<?xml version="1.0" encoding="utf-8"?>
<!-- Generator: Adobe Illustrator 16.0.0, SVG Export Plug-In . SVG Version: 6.00 Build 0)  -->
<!DOCTYPE svg PUBLIC "-//W3C//DTD SVG 1.1//EN" "http://www.w3.org/Graphics/SVG/1.1/DTD/svg11.dtd">
<svg version="1.1" id="Layer_1" xmlns="http://www.w3.org/2000/svg" xmlns:xlink="http://www.w3.org/1999/xlink" x="0px" y="0px"
	 width="119.057px" height="119.055px" viewBox="0 0 119.057 119.055" enable-background="new 0 0 119.057 119.055"
	 xml:space="preserve">
<g>
	<path fill="#FFFFFF" d="M116.221,119.055H2.835c-1.565,0-2.835-1.27-2.835-2.834V24.094c0-0.752,0.299-1.473,0.83-2.004L22.09,0.83
		C22.622,0.299,23.343,0,24.095,0h70.866c0.752,0,1.473,0.299,2.004,0.83l21.262,21.26c0.531,0.531,0.83,1.252,0.83,2.004v92.127
		C119.057,117.785,117.787,119.055,116.221,119.055z M5.67,113.385h107.717V25.268l-19.6-19.6H25.27l-19.6,19.6V113.385z"/>
	<path fill="#FFFFFF" d="M88.824,71.709c-0.764-0.453-1.992-0.674-3.755-0.674c-4.206,0-10.95,1.317-16.454,3.311
		c8.159-7.973,16.586-21.66,16.088-26.008c-0.05-0.437-0.452-0.744-0.879-0.699c-4.551,0.52-15.188,11.801-21,21.535
		c1.045-6.242,0.983-13.26,0.899-16.102c-0.278-9.495-1.86-20.359-4.768-23.267c-0.311-0.311-0.813-0.276-1.123,0.034
		c-4.144,4.145-5.665,24.889-3.3,38.58c-5.897-9.555-16.107-20.275-20.541-20.781c-0.425-0.045-0.829,0.263-0.879,0.699
		c-0.498,4.348,7.928,18.035,16.088,26.008c-5.505-1.994-12.248-3.311-16.454-3.311c-1.763,0-2.991,0.221-3.755,0.674
		c-0.377,0.224-0.502,0.711-0.278,1.088c1.843,3.117,14.021,7.467,22.192,8.174c-5.416,1.823-11.664,5.342-12.517,7.564
		c-0.157,0.409,0.047,0.869,0.456,1.025c0.339,0.131,0.76,0.195,1.286,0.195c4.037,0,15.999-4.664,18.216-8.685l-1.163,7.784h3.521
		l-1.137-7.604c2.467,3.975,14.14,8.432,18.115,8.432c0.526,0,0.947-0.027,1.286-0.158c0.409-0.158,0.613-0.6,0.456-1.008
		c-0.853-2.223-7.101-5.732-12.517-7.557c8.172-0.706,20.349-5.051,22.192-8.169C89.326,72.415,89.201,71.933,88.824,71.709z
		 M30.8,72.762c0.455-0.08,1.084-0.138,1.947-0.138c5.319,0,15.257,2.276,20.589,5.249c0.541,0.387,1.07,0.723,1.591,1.023
		c0.169,0.125,0.351,0.25,0.5,0.377c-0.658,0.14-1.458,0.21-2.389,0.21C46.101,79.482,34.106,75.479,30.8,72.762z M40.637,88.146
		c2.624-2.421,10.979-6.564,15.612-6.764C53.347,84.365,44.55,87.848,40.637,88.146z M55.844,77.609
		c-0.443-0.32-0.936-0.635-1.472-0.942c-7.981-5.647-18.769-21.563-19.641-27.185c4.94,2.088,17.056,15.486,21.208,24.785
		c0.254,0.761,0.531,1.457,0.824,2.104c0.222,0.674,0.391,1.318,0.491,1.918C56.803,78.115,56.329,77.883,55.844,77.609z
		 M58.748,76.682c-0.298-0.503-0.572-1.071-0.832-1.678c-0.105-0.273-0.212-0.548-0.332-0.83c-4.26-11.336-2.866-36.65,0.81-42.551
		C62.39,38.039,64.269,67.912,58.748,76.682z M83.085,49.482c-0.872,5.623-11.663,21.544-19.646,27.188
		c-0.531,0.306-1.021,0.618-1.461,0.937c-0.488,0.275-0.963,0.509-1.417,0.683C62.036,69.463,77.369,51.897,83.085,49.482z
		 M77.18,88.146c-3.913-0.299-12.71-3.781-15.612-6.764C66.201,81.582,74.556,85.726,77.18,88.146z M64.78,79.483
		c-0.932,0-1.73-0.07-2.39-0.21c0.15-0.128,0.333-0.253,0.503-0.379c0.519-0.301,1.046-0.636,1.585-1.02
		c5.331-2.975,15.271-5.251,20.591-5.251c0.863,0,1.492,0.058,1.947,0.138C83.711,75.479,71.717,79.483,64.78,79.483z"/>
</g>
</svg>
