<?xml version="1.0" encoding="utf-8"?>
<!-- Generator: Adobe Illustrator 16.0.0, SVG Export Plug-In . SVG Version: 6.00 Build 0)  -->
<!DOCTYPE svg PUBLIC "-//W3C//DTD SVG 1.1//EN" "http://www.w3.org/Graphics/SVG/1.1/DTD/svg11.dtd">
<svg version="1.1" id="Layer_1" xmlns="http://www.w3.org/2000/svg" xmlns:xlink="http://www.w3.org/1999/xlink" x="0px" y="0px"
	 width="119.057px" height="119.055px" viewBox="0 0 119.057 119.055" enable-background="new 0 0 119.057 119.055"
	 xml:space="preserve">
<g>
	<path fill="#FFFFFF" d="M116.221,119.055H2.835c-1.565,0-2.835-1.27-2.835-2.834V24.094c0-0.752,0.299-1.473,0.83-2.004L22.09,0.83
		C22.622,0.299,23.343,0,24.095,0h70.866c0.752,0,1.473,0.299,2.004,0.83l21.262,21.26c0.531,0.531,0.83,1.252,0.83,2.004v92.127
		C119.057,117.785,117.787,119.055,116.221,119.055z M5.67,113.385h107.717V25.268l-19.6-19.6H25.27l-19.6,19.6V113.385z"/>
	<g>
		<path fill-rule="evenodd" clip-rule="evenodd" fill="none" stroke="#FFFFFF" stroke-width="1.5643" stroke-miterlimit="10" d="
			M53.471,49.291c0,0,5.109-0.416,6.113,3.338c1.763-3.314,4.789-3.338,6.001-3.338"/>
		<g>
			<path fill-rule="evenodd" clip-rule="evenodd" fill="none" stroke="#FFFFFF" stroke-width="1.5643" stroke-miterlimit="10" d="
				M57.047,49.998c0,0-0.449-4.797,1.378-9.119c-2.589,0.43-4.765,2.021-5.935,4.199c-1.35-0.92-2.99-1.465-4.769-1.465
				c-4.568,0-10.094,3.572-10.094,7.982c0,0,0.189,22.48,6.247,30.43c0,0,4.504,6.365,10.069-0.516
				c1.741,2.281,4.714,2.576,5.095,2.576l0.963,0.004c0.383,0,3.354-0.295,5.096-2.576c5.564,6.881,10.072,0.516,10.072,0.516
				c6.057-7.949,6.258-30.434,6.258-30.434c0-4.41-5.524-7.982-10.094-7.982c-1.582,0-3.057,0.436-4.313,1.18
				c-0.687-1.162-1.666-2.137-2.84-2.84c-2.986,3.074-2.49,8.418-2.49,8.418"/>
			<path fill-rule="evenodd" clip-rule="evenodd" fill="none" stroke="#FFFFFF" stroke-width="1.5643" stroke-miterlimit="10" d="
				M64.182,41.953c0.566-0.582,1.258-1.086,2.104-1.453c5.3-2.307,2.423-6.773-0.304-6.086c-4.089,0.887-6.333,3.57-7.558,6.465"/>
			<path fill-rule="evenodd" clip-rule="evenodd" fill="none" stroke="#FFFFFF" stroke-width="1.5643" stroke-miterlimit="10" d="
				M61.691,50.371c0,0-0.496-5.344,2.49-8.418"/>
			<path fill-rule="evenodd" clip-rule="evenodd" fill="none" stroke="#FFFFFF" stroke-width="1.5643" stroke-miterlimit="10" d="
				M58.425,40.879c-1.827,4.322-1.378,9.119-1.378,9.119"/>
		</g>
		<path fill-rule="evenodd" clip-rule="evenodd" fill="none" stroke="#FFFFFF" stroke-width="1.5643" stroke-miterlimit="10" d="
			M76.128,57.574c0,0,0.151,10.762-4.694,19.006"/>
	</g>
</g>
</svg>
