<?xml version="1.0" encoding="utf-8"?>
<!-- Generator: Adobe Illustrator 16.0.0, SVG Export Plug-In . SVG Version: 6.00 Build 0)  -->
<!DOCTYPE svg PUBLIC "-//W3C//DTD SVG 1.1//EN" "http://www.w3.org/Graphics/SVG/1.1/DTD/svg11.dtd">
<svg version="1.1" id="Layer_1" xmlns="http://www.w3.org/2000/svg" xmlns:xlink="http://www.w3.org/1999/xlink" x="0px" y="0px"
	 width="119.057px" height="119.055px" viewBox="0 0 119.057 119.055" enable-background="new 0 0 119.057 119.055"
	 xml:space="preserve">
<g>
	<path fill="#FFFFFF" d="M116.221,119.055H2.836c-1.566,0-2.836-1.27-2.836-2.834V24.094c0-0.752,0.299-1.473,0.83-2.004L22.09,0.83
		C22.623,0.299,23.344,0,24.096,0h70.865c0.752,0,1.473,0.299,2.004,0.83l21.262,21.26c0.531,0.531,0.83,1.252,0.83,2.004v92.127
		C119.057,117.785,117.787,119.055,116.221,119.055z M5.67,113.385h107.717V25.268l-19.6-19.6H25.27l-19.6,19.6V113.385z"/>
	<path fill="none" stroke="#FFFFFF" stroke-width="1.6244" stroke-miterlimit="10" d="M60.072,48.213"/>
	<g>
		<path fill="none" stroke="#FFFFFF" stroke-width="1.6244" stroke-miterlimit="10" d="M72.152,45.482
			c-3.104-1.453-7.76-0.971-12.623,1.354c-4.863-2.324-9.521-2.807-12.623-1.354c-7.973,4.033-13.367,9.49-13.367,18.371
			c0,13.043,11.637,19.713,25.99,19.713s25.99-6.67,25.99-19.713C85.52,54.973,80.125,49.516,72.152,45.482z"/>
		<path fill="none" stroke="#FFFFFF" stroke-width="1.6244" stroke-miterlimit="10" d="M78.922,49.898c0,0-4.145-1.443-8.594-1.105
			c0,0-4.893-0.199-3.512,4.963c0.018,0.063-0.051,0.09-0.102,0.041c-2.709-2.631-5.652-4.393-7.602-4.393s-4.893,1.762-7.602,4.393
			c-0.053,0.049-0.119,0.021-0.102-0.041c1.381-5.162-3.512-4.963-3.512-4.963c-4.449-0.338-8.383,1.637-8.383,1.637"/>
		<path fill="none" stroke="#FFFFFF" stroke-width="1.6244" stroke-miterlimit="10" d="M56.041,35.49c0,0,3.684,6.717,3.484,11.172"
			/>
		<path fill="none" stroke="#FFFFFF" stroke-width="1.6244" stroke-miterlimit="10" d="M80.691,66.502c0,0-2.33,9.203-12.549,11.033
			"/>
	</g>
</g>
</svg>
